<?xml version="1.0" encoding="UTF-8" standalone="no"?>
<!DOCTYPE svg PUBLIC "-//W3C//DTD SVG 1.1//EN"
 "http://www.w3.org/Graphics/SVG/1.1/DTD/svg11.dtd">
<!-- Generated by graphviz version 2.43.0 (0)
 -->
<!-- Title: docker_compose Pages: 1 -->
<svg width="1140pt" height="1070pt"
 viewBox="0.00 0.00 1140.00 1070.00" xmlns="http://www.w3.org/2000/svg" xmlns:xlink="http://www.w3.org/1999/xlink">
<g id="graph0" class="graph" transform="scale(1 1) rotate(0) translate(4 1066)">
<title>docker_compose</title>
<polygon fill="white" stroke="transparent" points="-4,4 -4,-1066 1136,-1066 1136,4 -4,4"/>
<!-- filebrowser -->
<g id="node1" class="node">
<title>filebrowser</title>
<polygon fill="lightblue" stroke="lightblue" points="415,-981 318,-981 318,-945 415,-945 415,-981"/>
<text text-anchor="middle" x="366.5" y="-959.3" font-family="Times,serif" font-size="14.00">filebrowser</text>
</g>
<!-- net::storage_network -->
<g id="node2" class="node">
<title>net::storage_network</title>
<ellipse fill="lightgray" stroke="lightgray" cx="891" cy="-342" rx="88.28" ry="18"/>
<text text-anchor="middle" x="891" y="-338.3" font-family="Times,serif" font-size="14.00">storage_network</text>
</g>
<!-- filebrowser&#45;&gt;net::storage_network -->
<g id="edge1" class="edge">
<title>filebrowser&#45;&gt;net::storage_network</title>
<path fill="none" stroke="gray" stroke-dasharray="1,5" d="M415.31,-967.9C472.1,-970.76 565.26,-965.61 614,-909 692.47,-817.86 566.91,-455.95 650,-369 692.11,-324.93 763.79,-322.2 817.88,-328.08"/>
<polygon fill="gray" stroke="gray" points="817.76,-331.59 828.11,-329.31 818.6,-324.64 817.76,-331.59"/>
</g>
<!-- net::capture_network -->
<g id="node3" class="node">
<title>net::capture_network</title>
<ellipse fill="lightgray" stroke="lightgray" cx="891" cy="-720" rx="89.08" ry="18"/>
<text text-anchor="middle" x="891" y="-716.3" font-family="Times,serif" font-size="14.00">capture_network</text>
</g>
<!-- filebrowser&#45;&gt;net::capture_network -->
<g id="edge2" class="edge">
<title>filebrowser&#45;&gt;net::capture_network</title>
<path fill="none" stroke="gray" stroke-dasharray="1,5" d="M415.39,-966.64C470.94,-968.06 561.57,-961.27 614,-909 666.23,-856.92 595.14,-796.3 650,-747 693.49,-707.92 760.82,-703.4 813.1,-707.39"/>
<polygon fill="gray" stroke="gray" points="813.08,-710.9 823.35,-708.29 813.7,-703.93 813.08,-710.9"/>
</g>
<!-- vol::./media:/srv/videos -->
<g id="node4" class="node">
<title>vol::./media:/srv/videos</title>
<path fill="lightgreen" stroke="lightgreen" d="M966.5,-1004.73C966.5,-1006.53 932.66,-1008 891,-1008 849.34,-1008 815.5,-1006.53 815.5,-1004.73 815.5,-1004.73 815.5,-975.27 815.5,-975.27 815.5,-973.47 849.34,-972 891,-972 932.66,-972 966.5,-973.47 966.5,-975.27 966.5,-975.27 966.5,-1004.73 966.5,-1004.73"/>
<path fill="none" stroke="lightgreen" d="M966.5,-1004.73C966.5,-1002.92 932.66,-1001.45 891,-1001.45 849.34,-1001.45 815.5,-1002.92 815.5,-1004.73"/>
<text text-anchor="middle" x="891" y="-986.3" font-family="Times,serif" font-size="14.00">./media:/srv/videos</text>
</g>
<!-- filebrowser&#45;&gt;vol::./media:/srv/videos -->
<g id="edge3" class="edge">
<title>filebrowser&#45;&gt;vol::./media:/srv/videos</title>
<path fill="none" stroke="darkgreen" stroke-dasharray="5,2" d="M415.25,-965.47C503.69,-970.04 694.03,-979.87 804.96,-985.61"/>
<polygon fill="darkgreen" stroke="darkgreen" points="804.95,-989.11 815.11,-986.13 805.31,-982.12 804.95,-989.11"/>
</g>
<!-- vol::./filebrowser/config:/config -->
<g id="node5" class="node">
<title>vol::./filebrowser/config:/config</title>
<path fill="lightgreen" stroke="lightgreen" d="M993.5,-1058.73C993.5,-1060.53 947.56,-1062 891,-1062 834.44,-1062 788.5,-1060.53 788.5,-1058.73 788.5,-1058.73 788.5,-1029.27 788.5,-1029.27 788.5,-1027.47 834.44,-1026 891,-1026 947.56,-1026 993.5,-1027.47 993.5,-1029.27 993.5,-1029.27 993.5,-1058.73 993.5,-1058.73"/>
<path fill="none" stroke="lightgreen" d="M993.5,-1058.73C993.5,-1056.92 947.56,-1055.45 891,-1055.45 834.44,-1055.45 788.5,-1056.92 788.5,-1058.73"/>
<text text-anchor="middle" x="891" y="-1040.3" font-family="Times,serif" font-size="14.00">./filebrowser/config:/config</text>
</g>
<!-- filebrowser&#45;&gt;vol::./filebrowser/config:/config -->
<g id="edge4" class="edge">
<title>filebrowser&#45;&gt;vol::./filebrowser/config:/config</title>
<path fill="none" stroke="darkgreen" stroke-dasharray="5,2" d="M415.29,-973.3C471.32,-985.1 567.06,-1004.43 650,-1017 691.75,-1023.33 737.8,-1028.86 778.3,-1033.24"/>
<polygon fill="darkgreen" stroke="darkgreen" points="778.15,-1036.74 788.47,-1034.32 778.9,-1029.78 778.15,-1036.74"/>
</g>
<!-- video&#45;indexer -->
<g id="node6" class="node">
<title>video&#45;indexer</title>
<polygon fill="lightblue" stroke="lightblue" points="423,-522 310,-522 310,-486 423,-486 423,-522"/>
<text text-anchor="middle" x="366.5" y="-500.3" font-family="Times,serif" font-size="14.00">video&#45;indexer</text>
</g>
<!-- video&#45;indexer&#45;&gt;net::storage_network -->
<g id="edge5" class="edge">
<title>video&#45;indexer&#45;&gt;net::storage_network</title>
<path fill="none" stroke="gray" stroke-dasharray="1,5" d="M423.13,-512.26C477.76,-517.13 560.47,-515.45 614,-472 651.65,-441.44 612.09,-399.24 650,-369 694.25,-333.7 758.57,-328.13 809.49,-330.74"/>
<polygon fill="gray" stroke="gray" points="809.29,-334.23 819.49,-331.36 809.73,-327.25 809.29,-334.23"/>
</g>
<!-- video&#45;indexer&#45;&gt;net::capture_network -->
<g id="edge7" class="edge">
<title>video&#45;indexer&#45;&gt;net::capture_network</title>
<path fill="none" stroke="gray" stroke-dasharray="1,5" d="M415.34,-522.03C468.37,-543.75 554.29,-584.27 614,-639 635.26,-658.49 625.37,-677.99 650,-693 694.37,-720.05 752.03,-727.23 799.71,-727.45"/>
<polygon fill="gray" stroke="gray" points="799.75,-730.95 809.73,-727.4 799.71,-723.95 799.75,-730.95"/>
</g>
<!-- net::event_network -->
<g id="node7" class="node">
<title>net::event_network</title>
<ellipse fill="lightgray" stroke="lightgray" cx="891" cy="-234" rx="79.09" ry="18"/>
<text text-anchor="middle" x="891" y="-230.3" font-family="Times,serif" font-size="14.00">event_network</text>
</g>
<!-- video&#45;indexer&#45;&gt;net::event_network -->
<g id="edge6" class="edge">
<title>video&#45;indexer&#45;&gt;net::event_network</title>
<path fill="none" stroke="gray" stroke-dasharray="1,5" d="M423.16,-505.23C479.42,-503.29 564.88,-491.07 614,-439 669.39,-380.29 590.49,-315.52 650,-261 694.8,-219.96 765.78,-216.73 818.95,-221.65"/>
<polygon fill="gray" stroke="gray" points="818.69,-225.15 829,-222.7 819.41,-218.18 818.69,-225.15"/>
</g>
<!-- vol::/mnt/b:/mnt/videos:ro -->
<g id="node8" class="node">
<title>vol::/mnt/b:/mnt/videos:ro</title>
<path fill="lightgreen" stroke="lightgreen" d="M976,-410.73C976,-412.53 937.9,-414 891,-414 844.1,-414 806,-412.53 806,-410.73 806,-410.73 806,-381.27 806,-381.27 806,-379.47 844.1,-378 891,-378 937.9,-378 976,-379.47 976,-381.27 976,-381.27 976,-410.73 976,-410.73"/>
<path fill="none" stroke="lightgreen" d="M976,-410.73C976,-408.92 937.9,-407.45 891,-407.45 844.1,-407.45 806,-408.92 806,-410.73"/>
<text text-anchor="middle" x="891" y="-392.3" font-family="Times,serif" font-size="14.00">/mnt/b:/mnt/videos:ro</text>
</g>
<!-- video&#45;indexer&#45;&gt;vol::/mnt/b:/mnt/videos:ro -->
<g id="edge8" class="edge">
<title>video&#45;indexer&#45;&gt;vol::/mnt/b:/mnt/videos:ro</title>
<path fill="none" stroke="darkgreen" stroke-dasharray="5,2" d="M423.15,-508.78C475.9,-510.68 555.56,-506.49 614,-472 637.27,-458.27 626.61,-436.54 650,-423 693.62,-397.76 749.17,-390.27 795.85,-389.42"/>
<polygon fill="darkgreen" stroke="darkgreen" points="796,-392.92 805.97,-389.34 795.94,-385.92 796,-392.92"/>
</g>
<!-- vol::./data:/data -->
<g id="node9" class="node">
<title>vol::./data:/data</title>
<path fill="lightgreen" stroke="lightgreen" d="M940,-572.73C940,-574.53 918.04,-576 891,-576 863.96,-576 842,-574.53 842,-572.73 842,-572.73 842,-543.27 842,-543.27 842,-541.47 863.96,-540 891,-540 918.04,-540 940,-541.47 940,-543.27 940,-543.27 940,-572.73 940,-572.73"/>
<path fill="none" stroke="lightgreen" d="M940,-572.73C940,-570.92 918.04,-569.45 891,-569.45 863.96,-569.45 842,-570.92 842,-572.73"/>
<text text-anchor="middle" x="891" y="-554.3" font-family="Times,serif" font-size="14.00">./data:/data</text>
</g>
<!-- video&#45;indexer&#45;&gt;vol::./data:/data -->
<g id="edge9" class="edge">
<title>video&#45;indexer&#45;&gt;vol::./data:/data</title>
<path fill="none" stroke="darkgreen" stroke-dasharray="5,2" d="M423.42,-509.78C523.06,-520.08 730.37,-541.5 831.7,-551.97"/>
<polygon fill="darkgreen" stroke="darkgreen" points="831.45,-555.47 841.76,-553.01 832.17,-548.5 831.45,-555.47"/>
</g>
<!-- vol::./repo&#45;data:/repo&#45;data -->
<g id="node10" class="node">
<title>vol::./repo&#45;data:/repo&#45;data</title>
<path fill="lightgreen" stroke="lightgreen" d="M976.5,-518.73C976.5,-520.53 938.18,-522 891,-522 843.82,-522 805.5,-520.53 805.5,-518.73 805.5,-518.73 805.5,-489.27 805.5,-489.27 805.5,-487.47 843.82,-486 891,-486 938.18,-486 976.5,-487.47 976.5,-489.27 976.5,-489.27 976.5,-518.73 976.5,-518.73"/>
<path fill="none" stroke="lightgreen" d="M976.5,-518.73C976.5,-516.92 938.18,-515.45 891,-515.45 843.82,-515.45 805.5,-516.92 805.5,-518.73"/>
<text text-anchor="middle" x="891" y="-500.3" font-family="Times,serif" font-size="14.00">./repo&#45;data:/repo&#45;data</text>
</g>
<!-- video&#45;indexer&#45;&gt;vol::./repo&#45;data:/repo&#45;data -->
<g id="edge10" class="edge">
<title>video&#45;indexer&#45;&gt;vol::./repo&#45;data:/repo&#45;data</title>
<path fill="none" stroke="darkgreen" stroke-dasharray="5,2" d="M423.42,-504C512.17,-504 686.33,-504 794.95,-504"/>
<polygon fill="darkgreen" stroke="darkgreen" points="795.25,-507.5 805.25,-504 795.25,-500.5 795.25,-507.5"/>
</g>
<!-- vol::./media:/app/media -->
<g id="node11" class="node">
<title>vol::./media:/app/media</title>
<path fill="lightgreen" stroke="lightgreen" d="M967,-464.73C967,-466.53 932.94,-468 891,-468 849.06,-468 815,-466.53 815,-464.73 815,-464.73 815,-435.27 815,-435.27 815,-433.47 849.06,-432 891,-432 932.94,-432 967,-433.47 967,-435.27 967,-435.27 967,-464.73 967,-464.73"/>
<path fill="none" stroke="lightgreen" d="M967,-464.73C967,-462.92 932.94,-461.45 891,-461.45 849.06,-461.45 815,-462.92 815,-464.73"/>
<text text-anchor="middle" x="891" y="-446.3" font-family="Times,serif" font-size="14.00">./media:/app/media</text>
</g>
<!-- video&#45;indexer&#45;&gt;vol::./media:/app/media -->
<g id="edge11" class="edge">
<title>video&#45;indexer&#45;&gt;vol::./media:/app/media</title>
<path fill="none" stroke="darkgreen" stroke-dasharray="5,2" d="M423.42,-498.22C514.85,-488.77 696.92,-469.95 804.6,-458.83"/>
<polygon fill="darkgreen" stroke="darkgreen" points="805.2,-462.28 814.78,-457.77 804.48,-455.32 805.2,-462.28"/>
</g>
<!-- obs&#45;pi -->
<g id="node12" class="node">
<title>obs&#45;pi</title>
<polygon fill="lightblue" stroke="lightblue" points="396,-792 337,-792 337,-756 396,-756 396,-792"/>
<text text-anchor="middle" x="366.5" y="-770.3" font-family="Times,serif" font-size="14.00">obs&#45;pi</text>
</g>
<!-- obs&#45;pi&#45;&gt;net::capture_network -->
<g id="edge12" class="edge">
<title>obs&#45;pi&#45;&gt;net::capture_network</title>
<path fill="none" stroke="gray" stroke-dasharray="1,5" d="M396.34,-771.02C472.32,-763.17 680.42,-741.66 800.79,-729.22"/>
<polygon fill="gray" stroke="gray" points="801.5,-732.67 811.08,-728.16 800.78,-725.7 801.5,-732.67"/>
</g>
<!-- vol::./pi&#45;obs&#45;container/config:/root/.config/obs&#45;studio -->
<g id="node13" class="node">
<title>vol::./pi&#45;obs&#45;container/config:/root/.config/obs&#45;studio</title>
<path fill="lightgreen" stroke="lightgreen" d="M1069,-788.73C1069,-790.53 989.22,-792 891,-792 792.78,-792 713,-790.53 713,-788.73 713,-788.73 713,-759.27 713,-759.27 713,-757.47 792.78,-756 891,-756 989.22,-756 1069,-757.47 1069,-759.27 1069,-759.27 1069,-788.73 1069,-788.73"/>
<path fill="none" stroke="lightgreen" d="M1069,-788.73C1069,-786.92 989.22,-785.45 891,-785.45 792.78,-785.45 713,-786.92 713,-788.73"/>
<text text-anchor="middle" x="891" y="-770.3" font-family="Times,serif" font-size="14.00">./pi&#45;obs&#45;container/config:/root/.config/obs&#45;studio</text>
</g>
<!-- obs&#45;pi&#45;&gt;vol::./pi&#45;obs&#45;container/config:/root/.config/obs&#45;studio -->
<g id="edge13" class="edge">
<title>obs&#45;pi&#45;&gt;vol::./pi&#45;obs&#45;container/config:/root/.config/obs&#45;studio</title>
<path fill="none" stroke="darkgreen" stroke-dasharray="5,2" d="M396.34,-774C454.17,-774 588.56,-774 702.54,-774"/>
<polygon fill="darkgreen" stroke="darkgreen" points="702.8,-777.5 712.8,-774 702.8,-770.5 702.8,-777.5"/>
</g>
<!-- vol::./pi&#45;obs&#45;container/assets:/root/assets -->
<g id="node14" class="node">
<title>vol::./pi&#45;obs&#45;container/assets:/root/assets</title>
<path fill="lightgreen" stroke="lightgreen" d="M1030,-950.73C1030,-952.53 967.7,-954 891,-954 814.3,-954 752,-952.53 752,-950.73 752,-950.73 752,-921.27 752,-921.27 752,-919.47 814.3,-918 891,-918 967.7,-918 1030,-919.47 1030,-921.27 1030,-921.27 1030,-950.73 1030,-950.73"/>
<path fill="none" stroke="lightgreen" d="M1030,-950.73C1030,-948.92 967.7,-947.45 891,-947.45 814.3,-947.45 752,-948.92 752,-950.73"/>
<text text-anchor="middle" x="891" y="-932.3" font-family="Times,serif" font-size="14.00">./pi&#45;obs&#45;container/assets:/root/assets</text>
</g>
<!-- obs&#45;pi&#45;&gt;vol::./pi&#45;obs&#45;container/assets:/root/assets -->
<g id="edge14" class="edge">
<title>obs&#45;pi&#45;&gt;vol::./pi&#45;obs&#45;container/assets:/root/assets</title>
<path fill="none" stroke="darkgreen" stroke-dasharray="5,2" d="M396.3,-768.08C446.5,-759.53 550.68,-749.9 614,-801 653.37,-832.78 610.67,-877.16 650,-909 675.77,-929.86 708.51,-940.41 741.47,-945.03"/>
<polygon fill="darkgreen" stroke="darkgreen" points="741.35,-948.54 751.7,-946.28 742.19,-941.59 741.35,-948.54"/>
</g>
<!-- vol::./pi&#45;obs&#45;container/scripts:/root/scripts -->
<g id="node15" class="node">
<title>vol::./pi&#45;obs&#45;container/scripts:/root/scripts</title>
<path fill="lightgreen" stroke="lightgreen" d="M1033.5,-896.73C1033.5,-898.53 969.63,-900 891,-900 812.37,-900 748.5,-898.53 748.5,-896.73 748.5,-896.73 748.5,-867.27 748.5,-867.27 748.5,-865.47 812.37,-864 891,-864 969.63,-864 1033.5,-865.47 1033.5,-867.27 1033.5,-867.27 1033.5,-896.73 1033.5,-896.73"/>
<path fill="none" stroke="lightgreen" d="M1033.5,-896.73C1033.5,-894.92 969.63,-893.45 891,-893.45 812.37,-893.45 748.5,-894.92 748.5,-896.73"/>
<text text-anchor="middle" x="891" y="-878.3" font-family="Times,serif" font-size="14.00">./pi&#45;obs&#45;container/scripts:/root/scripts</text>
</g>
<!-- obs&#45;pi&#45;&gt;vol::./pi&#45;obs&#45;container/scripts:/root/scripts -->
<g id="edge15" class="edge">
<title>obs&#45;pi&#45;&gt;vol::./pi&#45;obs&#45;container/scripts:/root/scripts</title>
<path fill="none" stroke="darkgreen" stroke-dasharray="5,2" d="M396.18,-769.76C444.85,-764.09 545.01,-759.09 614,-801 638.65,-815.98 625.37,-839.99 650,-855 676.41,-871.1 707.53,-880.16 738.45,-884.91"/>
<polygon fill="darkgreen" stroke="darkgreen" points="738.09,-888.39 748.47,-886.3 739.05,-881.46 738.09,-888.39"/>
</g>
<!-- vol::/mnt/b:/mnt/b:rw -->
<g id="node16" class="node">
<title>vol::/mnt/b:/mnt/b:rw</title>
<path fill="lightgreen" stroke="lightgreen" d="M959.5,-842.73C959.5,-844.53 928.8,-846 891,-846 853.2,-846 822.5,-844.53 822.5,-842.73 822.5,-842.73 822.5,-813.27 822.5,-813.27 822.5,-811.47 853.2,-810 891,-810 928.8,-810 959.5,-811.47 959.5,-813.27 959.5,-813.27 959.5,-842.73 959.5,-842.73"/>
<path fill="none" stroke="lightgreen" d="M959.5,-842.73C959.5,-840.92 928.8,-839.45 891,-839.45 853.2,-839.45 822.5,-840.92 822.5,-842.73"/>
<text text-anchor="middle" x="891" y="-824.3" font-family="Times,serif" font-size="14.00">/mnt/b:/mnt/b:rw</text>
</g>
<!-- obs&#45;pi&#45;&gt;vol::/mnt/b:/mnt/b:rw -->
<g id="edge16" class="edge">
<title>obs&#45;pi&#45;&gt;vol::/mnt/b:/mnt/b:rw</title>
<path fill="none" stroke="darkgreen" stroke-dasharray="5,2" d="M396.34,-776.98C474.81,-785.09 694.22,-807.77 812.35,-819.98"/>
<polygon fill="darkgreen" stroke="darkgreen" points="812.11,-823.47 822.42,-821.02 812.83,-816.51 812.11,-823.47"/>
</g>
<!-- webrtc&#45;pi -->
<g id="node17" class="node">
<title>webrtc&#45;pi</title>
<polygon fill="lightblue" stroke="lightblue" points="408.5,-684 324.5,-684 324.5,-648 408.5,-648 408.5,-684"/>
<text text-anchor="middle" x="366.5" y="-662.3" font-family="Times,serif" font-size="14.00">webrtc&#45;pi</text>
</g>
<!-- webrtc&#45;pi&#45;&gt;net::capture_network -->
<g id="edge17" class="edge">
<title>webrtc&#45;pi&#45;&gt;net::capture_network</title>
<path fill="none" stroke="gray" stroke-dasharray="1,5" d="M408.94,-670.28C493.4,-679.01 687.13,-699.03 801.31,-710.83"/>
<polygon fill="gray" stroke="gray" points="801.12,-714.33 811.42,-711.88 801.84,-707.37 801.12,-714.33"/>
</g>
<!-- vol::./webrtc&#45;server/app:/app -->
<g id="node18" class="node">
<title>vol::./webrtc&#45;server/app:/app</title>
<path fill="lightgreen" stroke="lightgreen" d="M986.5,-626.73C986.5,-628.53 943.7,-630 891,-630 838.3,-630 795.5,-628.53 795.5,-626.73 795.5,-626.73 795.5,-597.27 795.5,-597.27 795.5,-595.47 838.3,-594 891,-594 943.7,-594 986.5,-595.47 986.5,-597.27 986.5,-597.27 986.5,-626.73 986.5,-626.73"/>
<path fill="none" stroke="lightgreen" d="M986.5,-626.73C986.5,-624.92 943.7,-623.45 891,-623.45 838.3,-623.45 795.5,-624.92 795.5,-626.73"/>
<text text-anchor="middle" x="891" y="-608.3" font-family="Times,serif" font-size="14.00">./webrtc&#45;server/app:/app</text>
</g>
<!-- webrtc&#45;pi&#45;&gt;vol::./webrtc&#45;server/app:/app -->
<g id="edge18" class="edge">
<title>webrtc&#45;pi&#45;&gt;vol::./webrtc&#45;server/app:/app</title>
<path fill="none" stroke="darkgreen" stroke-dasharray="5,2" d="M408.94,-661.72C489.54,-653.39 669.62,-634.78 785.15,-622.84"/>
<polygon fill="darkgreen" stroke="darkgreen" points="785.84,-626.28 795.43,-621.77 785.12,-619.32 785.84,-626.28"/>
</g>
<!-- vol::./webrtc&#45;server/config/turnserver.conf:/etc/coturn/turnserver.conf -->
<g id="node19" class="node">
<title>vol::./webrtc&#45;server/config/turnserver.conf:/etc/coturn/turnserver.conf</title>
<path fill="lightgreen" stroke="lightgreen" d="M1132,-680.73C1132,-682.53 1023.98,-684 891,-684 758.02,-684 650,-682.53 650,-680.73 650,-680.73 650,-651.27 650,-651.27 650,-649.47 758.02,-648 891,-648 1023.98,-648 1132,-649.47 1132,-651.27 1132,-651.27 1132,-680.73 1132,-680.73"/>
<path fill="none" stroke="lightgreen" d="M1132,-680.73C1132,-678.92 1023.98,-677.45 891,-677.45 758.02,-677.45 650,-678.92 650,-680.73"/>
<text text-anchor="middle" x="891" y="-662.3" font-family="Times,serif" font-size="14.00">./webrtc&#45;server/config/turnserver.conf:/etc/coturn/turnserver.conf</text>
</g>
<!-- webrtc&#45;pi&#45;&gt;vol::./webrtc&#45;server/config/turnserver.conf:/etc/coturn/turnserver.conf -->
<g id="edge19" class="edge">
<title>webrtc&#45;pi&#45;&gt;vol::./webrtc&#45;server/config/turnserver.conf:/etc/coturn/turnserver.conf</title>
<path fill="none" stroke="darkgreen" stroke-dasharray="5,2" d="M408.94,-666C459.95,-666 550.8,-666 639.92,-666"/>
<polygon fill="darkgreen" stroke="darkgreen" points="639.93,-669.5 649.93,-666 639.93,-662.5 639.93,-669.5"/>
</g>
<!-- rtsp&#45;pi -->
<g id="node20" class="node">
<title>rtsp&#45;pi</title>
<polygon fill="lightblue" stroke="lightblue" points="398.5,-738 334.5,-738 334.5,-702 398.5,-702 398.5,-738"/>
<text text-anchor="middle" x="366.5" y="-716.3" font-family="Times,serif" font-size="14.00">rtsp&#45;pi</text>
</g>
<!-- rtsp&#45;pi&#45;&gt;net::capture_network -->
<g id="edge20" class="edge">
<title>rtsp&#45;pi&#45;&gt;net::capture_network</title>
<path fill="none" stroke="gray" stroke-dasharray="1,5" d="M398.62,-720C474.4,-720 671.11,-720 791.41,-720"/>
<polygon fill="gray" stroke="gray" points="791.73,-723.5 801.73,-720 791.73,-716.5 791.73,-723.5"/>
</g>
<!-- rtmp&#45;server -->
<g id="node21" class="node">
<title>rtmp&#45;server</title>
<polygon fill="lightblue" stroke="lightblue" points="417.5,-176 315.5,-176 315.5,-140 417.5,-140 417.5,-176"/>
<text text-anchor="middle" x="366.5" y="-154.3" font-family="Times,serif" font-size="14.00">rtmp&#45;server</text>
</g>
<!-- rtmp&#45;server&#45;&gt;net::capture_network -->
<g id="edge22" class="edge">
<title>rtmp&#45;server&#45;&gt;net::capture_network</title>
<path fill="none" stroke="gray" stroke-dasharray="1,5" d="M417.73,-155.51C474.85,-155.71 566.33,-165.79 614,-223 681.06,-303.47 577.26,-617.62 650,-693 692.12,-736.65 763.29,-739.59 817.22,-733.89"/>
<polygon fill="gray" stroke="gray" points="817.89,-737.33 827.41,-732.69 817.07,-730.38 817.89,-737.33"/>
</g>
<!-- rtmp&#45;server&#45;&gt;net::event_network -->
<g id="edge23" class="edge">
<title>rtmp&#45;server&#45;&gt;net::event_network</title>
<path fill="none" stroke="gray" stroke-dasharray="1,5" d="M417.54,-159.93C468.02,-162.93 547.74,-170.58 614,-190 630.98,-194.98 632.98,-202.17 650,-207 699.22,-220.97 756.04,-227.76 802.04,-231.04"/>
<polygon fill="gray" stroke="gray" points="802.07,-234.55 812.28,-231.72 802.54,-227.56 802.07,-234.55"/>
</g>
<!-- vol::/mnt/b -->
<g id="node23" class="node">
<title>vol::/mnt/b</title>
<path fill="lightgreen" stroke="lightgreen" d="M922.5,-194.73C922.5,-196.53 908.38,-198 891,-198 873.62,-198 859.5,-196.53 859.5,-194.73 859.5,-194.73 859.5,-165.27 859.5,-165.27 859.5,-163.47 873.62,-162 891,-162 908.38,-162 922.5,-163.47 922.5,-165.27 922.5,-165.27 922.5,-194.73 922.5,-194.73"/>
<path fill="none" stroke="lightgreen" d="M922.5,-194.73C922.5,-192.92 908.38,-191.45 891,-191.45 873.62,-191.45 859.5,-192.92 859.5,-194.73"/>
<text text-anchor="middle" x="891" y="-176.3" font-family="Times,serif" font-size="14.00">/mnt/b</text>
</g>
<!-- rtmp&#45;server&#45;&gt;vol::/mnt/b -->
<g id="edge24" class="edge">
<title>rtmp&#45;server&#45;&gt;vol::/mnt/b</title>
<path fill="none" stroke="darkgreen" stroke-dasharray="5,2" d="M417.6,-160.11C520.76,-164.45 755.1,-174.32 849.49,-178.29"/>
<polygon fill="darkgreen" stroke="darkgreen" points="849.36,-181.79 859.5,-178.72 849.65,-174.8 849.36,-181.79"/>
</g>
<!-- vol::./public/assets:/usr/share/nginx/html/assets:ro -->
<g id="node24" class="node">
<title>vol::./public/assets:/usr/share/nginx/html/assets:ro</title>
<path fill="lightgreen" stroke="lightgreen" d="M1064,-140.73C1064,-142.53 986.46,-144 891,-144 795.54,-144 718,-142.53 718,-140.73 718,-140.73 718,-111.27 718,-111.27 718,-109.47 795.54,-108 891,-108 986.46,-108 1064,-109.47 1064,-111.27 1064,-111.27 1064,-140.73 1064,-140.73"/>
<path fill="none" stroke="lightgreen" d="M1064,-140.73C1064,-138.92 986.46,-137.45 891,-137.45 795.54,-137.45 718,-138.92 718,-140.73"/>
<text text-anchor="middle" x="891" y="-122.3" font-family="Times,serif" font-size="14.00">./public/assets:/usr/share/nginx/html/assets:ro</text>
</g>
<!-- rtmp&#45;server&#45;&gt;vol::./public/assets:/usr/share/nginx/html/assets:ro -->
<g id="edge25" class="edge">
<title>rtmp&#45;server&#45;&gt;vol::./public/assets:/usr/share/nginx/html/assets:ro</title>
<path fill="none" stroke="darkgreen" stroke-dasharray="5,2" d="M417.6,-154.93C484.03,-150.86 604.87,-143.46 707.7,-137.16"/>
<polygon fill="darkgreen" stroke="darkgreen" points="708.15,-140.64 717.91,-136.54 707.72,-133.66 708.15,-140.64"/>
</g>
<!-- vol::./credentials.json:/etc/credentials.json:ro -->
<g id="node25" class="node">
<title>vol::./credentials.json:/etc/credentials.json:ro</title>
<path fill="lightgreen" stroke="lightgreen" d="M1044.5,-86.73C1044.5,-88.53 975.7,-90 891,-90 806.3,-90 737.5,-88.53 737.5,-86.73 737.5,-86.73 737.5,-57.27 737.5,-57.27 737.5,-55.47 806.3,-54 891,-54 975.7,-54 1044.5,-55.47 1044.5,-57.27 1044.5,-57.27 1044.5,-86.73 1044.5,-86.73"/>
<path fill="none" stroke="lightgreen" d="M1044.5,-86.73C1044.5,-84.92 975.7,-83.45 891,-83.45 806.3,-83.45 737.5,-84.92 737.5,-86.73"/>
<text text-anchor="middle" x="891" y="-68.3" font-family="Times,serif" font-size="14.00">./credentials.json:/etc/credentials.json:ro</text>
</g>
<!-- rtmp&#45;server&#45;&gt;vol::./credentials.json:/etc/credentials.json:ro -->
<g id="edge26" class="edge">
<title>rtmp&#45;server&#45;&gt;vol::./credentials.json:/etc/credentials.json:ro</title>
<path fill="none" stroke="darkgreen" stroke-dasharray="5,2" d="M417.5,-146.07C473.76,-133 568,-112.15 650,-99 674.85,-95.02 701.25,-91.42 727.09,-88.24"/>
<polygon fill="darkgreen" stroke="darkgreen" points="727.85,-91.67 737.35,-86.99 727.01,-84.72 727.85,-91.67"/>
</g>
<!-- vol::/tmp/rtmp&#45;recordings:/tmp/hls:rw -->
<g id="node26" class="node">
<title>vol::/tmp/rtmp&#45;recordings:/tmp/hls:rw</title>
<path fill="lightgreen" stroke="lightgreen" d="M1019.5,-32.73C1019.5,-34.53 961.9,-36 891,-36 820.1,-36 762.5,-34.53 762.5,-32.73 762.5,-32.73 762.5,-3.27 762.5,-3.27 762.5,-1.47 820.1,0 891,0 961.9,0 1019.5,-1.47 1019.5,-3.27 1019.5,-3.27 1019.5,-32.73 1019.5,-32.73"/>
<path fill="none" stroke="lightgreen" d="M1019.5,-32.73C1019.5,-30.92 961.9,-29.45 891,-29.45 820.1,-29.45 762.5,-30.92 762.5,-32.73"/>
<text text-anchor="middle" x="891" y="-14.3" font-family="Times,serif" font-size="14.00">/tmp/rtmp&#45;recordings:/tmp/hls:rw</text>
</g>
<!-- rtmp&#45;server&#45;&gt;vol::/tmp/rtmp&#45;recordings:/tmp/hls:rw -->
<g id="edge27" class="edge">
<title>rtmp&#45;server&#45;&gt;vol::/tmp/rtmp&#45;recordings:/tmp/hls:rw</title>
<path fill="none" stroke="darkgreen" stroke-dasharray="5,2" d="M403.47,-139.95C456.15,-114.37 558.04,-68.12 650,-45 682.75,-36.77 718.66,-31.04 752.48,-27.06"/>
<polygon fill="darkgreen" stroke="darkgreen" points="752.89,-30.54 762.44,-25.93 752.11,-23.58 752.89,-30.54"/>
</g>
<!-- rabbitmq -->
<g id="node22" class="node">
<title>rabbitmq</title>
<polygon fill="lightblue" stroke="lightblue" points="83,-268 0,-268 0,-232 83,-232 83,-268"/>
<text text-anchor="middle" x="41.5" y="-246.3" font-family="Times,serif" font-size="14.00">rabbitmq</text>
</g>
<!-- rabbitmq&#45;&gt;net::event_network -->
<g id="edge33" class="edge">
<title>rabbitmq&#45;&gt;net::event_network</title>
<path fill="none" stroke="gray" stroke-dasharray="1,5" d="M83.11,-232.8C94.51,-228.76 107.06,-225.04 119,-223 335.84,-185.86 394.04,-218.62 614,-223 677.28,-224.26 748.68,-227.15 803,-229.64"/>
<polygon fill="gray" stroke="gray" points="803.14,-233.15 813.29,-230.12 803.46,-226.16 803.14,-233.15"/>
</g>
<!-- rabbitmq&#45;&gt;rtmp&#45;server -->
<g id="edge21" class="edge">
<title>rabbitmq&#45;&gt;rtmp&#45;server</title>
<path fill="none" stroke="black" d="M59.85,-231.85C74.29,-217.96 96.12,-199.6 119,-190 178.94,-164.86 253.68,-158.23 305.05,-157.02"/>
<polygon fill="black" stroke="black" points="305.39,-160.52 315.33,-156.85 305.27,-153.52 305.39,-160.52"/>
</g>
<!-- vol::rabbitmq_data:/var/lib/rabbitmq -->
<g id="node31" class="node">
<title>vol::rabbitmq_data:/var/lib/rabbitmq</title>
<path fill="lightgreen" stroke="lightgreen" d="M489.5,-372.73C489.5,-374.53 434.37,-376 366.5,-376 298.63,-376 243.5,-374.53 243.5,-372.73 243.5,-372.73 243.5,-343.27 243.5,-343.27 243.5,-341.47 298.63,-340 366.5,-340 434.37,-340 489.5,-341.47 489.5,-343.27 489.5,-343.27 489.5,-372.73 489.5,-372.73"/>
<path fill="none" stroke="lightgreen" d="M489.5,-372.73C489.5,-370.92 434.37,-369.45 366.5,-369.45 298.63,-369.45 243.5,-370.92 243.5,-372.73"/>
<text text-anchor="middle" x="366.5" y="-354.3" font-family="Times,serif" font-size="14.00">rabbitmq_data:/var/lib/rabbitmq</text>
</g>
<!-- rabbitmq&#45;&gt;vol::rabbitmq_data:/var/lib/rabbitmq -->
<g id="edge34" class="edge">
<title>rabbitmq&#45;&gt;vol::rabbitmq_data:/var/lib/rabbitmq</title>
<path fill="none" stroke="darkgreen" stroke-dasharray="5,2" d="M53.79,-268.04C66.9,-287.25 90.42,-316.79 119,-331 153.77,-348.29 194.63,-356.75 232.98,-360.45"/>
<polygon fill="darkgreen" stroke="darkgreen" points="232.93,-363.96 243.2,-361.34 233.53,-356.99 232.93,-363.96"/>
</g>
<!-- vol::./event&#45;broker/config/rabbitmq.conf:/etc/rabbitmq/rabbitmq.conf:ro -->
<g id="node32" class="node">
<title>vol::./event&#45;broker/config/rabbitmq.conf:/etc/rabbitmq/rabbitmq.conf:ro</title>
<path fill="lightgreen" stroke="lightgreen" d="M614,-318.73C614,-320.53 503.07,-322 366.5,-322 229.93,-322 119,-320.53 119,-318.73 119,-318.73 119,-289.27 119,-289.27 119,-287.47 229.93,-286 366.5,-286 503.07,-286 614,-287.47 614,-289.27 614,-289.27 614,-318.73 614,-318.73"/>
<path fill="none" stroke="lightgreen" d="M614,-318.73C614,-316.92 503.07,-315.45 366.5,-315.45 229.93,-315.45 119,-316.92 119,-318.73"/>
<text text-anchor="middle" x="366.5" y="-300.3" font-family="Times,serif" font-size="14.00">./event&#45;broker/config/rabbitmq.conf:/etc/rabbitmq/rabbitmq.conf:ro</text>
</g>
<!-- rabbitmq&#45;&gt;vol::./event&#45;broker/config/rabbitmq.conf:/etc/rabbitmq/rabbitmq.conf:ro -->
<g id="edge35" class="edge">
<title>rabbitmq&#45;&gt;vol::./event&#45;broker/config/rabbitmq.conf:/etc/rabbitmq/rabbitmq.conf:ro</title>
<path fill="none" stroke="darkgreen" stroke-dasharray="5,2" d="M83.28,-266.34C94.68,-270.38 107.19,-274.31 119,-277 132.26,-280.02 145.99,-282.71 159.89,-285.1"/>
<polygon fill="darkgreen" stroke="darkgreen" points="159.6,-288.6 170.04,-286.79 160.75,-281.69 159.6,-288.6"/>
</g>
<!-- metadata&#45;service -->
<g id="node33" class="node">
<title>metadata&#45;service</title>
<polygon fill="lightblue" stroke="lightblue" points="436.5,-268 296.5,-268 296.5,-232 436.5,-232 436.5,-268"/>
<text text-anchor="middle" x="366.5" y="-246.3" font-family="Times,serif" font-size="14.00">metadata&#45;service</text>
</g>
<!-- rabbitmq&#45;&gt;metadata&#45;service -->
<g id="edge36" class="edge">
<title>rabbitmq&#45;&gt;metadata&#45;service</title>
<path fill="none" stroke="black" d="M83.08,-250C133.82,-250 221.83,-250 286.15,-250"/>
<polygon fill="black" stroke="black" points="286.26,-253.5 296.26,-250 286.26,-246.5 286.26,-253.5"/>
</g>
<!-- minio -->
<g id="node27" class="node">
<title>minio</title>
<polygon fill="lightblue" stroke="lightblue" points="69.5,-661 13.5,-661 13.5,-625 69.5,-625 69.5,-661"/>
<text text-anchor="middle" x="41.5" y="-639.3" font-family="Times,serif" font-size="14.00">minio</text>
</g>
<!-- minio&#45;&gt;net::storage_network -->
<g id="edge28" class="edge">
<title>minio&#45;&gt;net::storage_network</title>
<path fill="none" stroke="gray" stroke-dasharray="1,5" d="M44.85,-624.96C50.5,-589.76 68.33,-512.25 119,-477 209.57,-414 522.1,-500.03 614,-439 643.14,-419.65 621.2,-388.87 650,-369 694.47,-338.32 754.96,-331.69 804.09,-332.66"/>
<polygon fill="gray" stroke="gray" points="804.29,-336.17 814.39,-332.98 804.5,-329.17 804.29,-336.17"/>
</g>
<!-- vol::/mnt/b/rpi_sync/minio/data:/data -->
<g id="node28" class="node">
<title>vol::/mnt/b/rpi_sync/minio/data:/data</title>
<path fill="lightgreen" stroke="lightgreen" d="M490.5,-896.73C490.5,-898.53 434.92,-900 366.5,-900 298.08,-900 242.5,-898.53 242.5,-896.73 242.5,-896.73 242.5,-867.27 242.5,-867.27 242.5,-865.47 298.08,-864 366.5,-864 434.92,-864 490.5,-865.47 490.5,-867.27 490.5,-867.27 490.5,-896.73 490.5,-896.73"/>
<path fill="none" stroke="lightgreen" d="M490.5,-896.73C490.5,-894.92 434.92,-893.45 366.5,-893.45 298.08,-893.45 242.5,-894.92 242.5,-896.73"/>
<text text-anchor="middle" x="366.5" y="-878.3" font-family="Times,serif" font-size="14.00">/mnt/b/rpi_sync/minio/data:/data</text>
</g>
<!-- minio&#45;&gt;vol::/mnt/b/rpi_sync/minio/data:/data -->
<g id="edge29" class="edge">
<title>minio&#45;&gt;vol::/mnt/b/rpi_sync/minio/data:/data</title>
<path fill="none" stroke="darkgreen" stroke-dasharray="5,2" d="M43,-661.1C45.23,-702.9 57.04,-806.24 119,-855 150.73,-879.98 192.31,-890.27 232.25,-893.3"/>
<polygon fill="darkgreen" stroke="darkgreen" points="232.16,-896.8 242.36,-893.91 232.59,-889.81 232.16,-896.8"/>
</g>
<!-- vol::/mnt/nas/ -->
<g id="node29" class="node">
<title>vol::/mnt/nas/</title>
<path fill="lightgreen" stroke="lightgreen" d="M408,-842.73C408,-844.53 389.4,-846 366.5,-846 343.6,-846 325,-844.53 325,-842.73 325,-842.73 325,-813.27 325,-813.27 325,-811.47 343.6,-810 366.5,-810 389.4,-810 408,-811.47 408,-813.27 408,-813.27 408,-842.73 408,-842.73"/>
<path fill="none" stroke="lightgreen" d="M408,-842.73C408,-840.92 389.4,-839.45 366.5,-839.45 343.6,-839.45 325,-840.92 325,-842.73"/>
<text text-anchor="middle" x="366.5" y="-824.3" font-family="Times,serif" font-size="14.00">/mnt/nas/</text>
</g>
<!-- minio&#45;&gt;vol::/mnt/nas/ -->
<g id="edge30" class="edge">
<title>minio&#45;&gt;vol::/mnt/nas/</title>
<path fill="none" stroke="darkgreen" stroke-dasharray="5,2" d="M45.44,-661.1C51.96,-694.88 71.06,-767.18 119,-801 176.5,-841.57 261.07,-841.34 314.7,-835.87"/>
<polygon fill="darkgreen" stroke="darkgreen" points="315.12,-839.35 324.67,-834.76 314.34,-832.39 315.12,-839.35"/>
</g>
<!-- minio&#45;init -->
<g id="node30" class="node">
<title>minio&#45;init</title>
<polygon fill="lightblue" stroke="lightblue" points="409,-430 324,-430 324,-394 409,-394 409,-430"/>
<text text-anchor="middle" x="366.5" y="-408.3" font-family="Times,serif" font-size="14.00">minio&#45;init</text>
</g>
<!-- minio&#45;&gt;minio&#45;init -->
<g id="edge31" class="edge">
<title>minio&#45;&gt;minio&#45;init</title>
<path fill="none" stroke="black" d="M43.55,-624.87C46.92,-585 60.96,-489.65 119,-444 174.45,-400.39 259.59,-399.43 313.9,-404.43"/>
<polygon fill="black" stroke="black" points="313.69,-407.92 324,-405.46 314.4,-400.96 313.69,-407.92"/>
</g>
<!-- minio&#45;init&#45;&gt;net::storage_network -->
<g id="edge32" class="edge">
<title>minio&#45;init&#45;&gt;net::storage_network</title>
<path fill="none" stroke="gray" stroke-dasharray="1,5" d="M409.22,-411.33C458.83,-409.65 543.76,-403.96 614,-385 630.9,-380.44 633.1,-373.59 650,-369 696.36,-356.41 749.3,-349.68 793.64,-346.09"/>
<polygon fill="gray" stroke="gray" points="794.13,-349.56 803.84,-345.31 793.6,-342.58 794.13,-349.56"/>
</g>
<!-- metadata&#45;service&#45;&gt;net::storage_network -->
<g id="edge38" class="edge">
<title>metadata&#45;service&#45;&gt;net::storage_network</title>
<path fill="none" stroke="gray" stroke-dasharray="1,5" d="M436.68,-245.14C488.16,-244.39 558.76,-249.58 614,-277 634.84,-287.34 629.18,-304.63 650,-315 694.4,-337.12 749.02,-344.56 794.92,-346.17"/>
<polygon fill="gray" stroke="gray" points="795.1,-349.67 805.18,-346.44 795.28,-342.68 795.1,-349.67"/>
</g>
<!-- metadata&#45;service&#45;&gt;net::event_network -->
<g id="edge37" class="edge">
<title>metadata&#45;service&#45;&gt;net::event_network</title>
<path fill="none" stroke="gray" stroke-dasharray="1,5" d="M436.61,-247.88C530.69,-245 699.12,-239.85 802.08,-236.69"/>
<polygon fill="gray" stroke="gray" points="802.26,-240.19 812.14,-236.38 802.04,-233.19 802.26,-240.19"/>
</g>
<!-- vol::./metadata&#45;service:/app -->
<g id="node34" class="node">
<title>vol::./metadata&#45;service:/app</title>
<path fill="lightgreen" stroke="lightgreen" d="M983,-302.73C983,-304.53 941.76,-306 891,-306 840.24,-306 799,-304.53 799,-302.73 799,-302.73 799,-273.27 799,-273.27 799,-271.47 840.24,-270 891,-270 941.76,-270 983,-271.47 983,-273.27 983,-273.27 983,-302.73 983,-302.73"/>
<path fill="none" stroke="lightgreen" d="M983,-302.73C983,-300.92 941.76,-299.45 891,-299.45 840.24,-299.45 799,-300.92 799,-302.73"/>
<text text-anchor="middle" x="891" y="-284.3" font-family="Times,serif" font-size="14.00">./metadata&#45;service:/app</text>
</g>
<!-- metadata&#45;service&#45;&gt;vol::./metadata&#45;service:/app -->
<g id="edge39" class="edge">
<title>metadata&#45;service&#45;&gt;vol::./metadata&#45;service:/app</title>
<path fill="none" stroke="darkgreen" stroke-dasharray="5,2" d="M436.61,-255.03C526.67,-261.58 684.84,-273.08 788.51,-280.62"/>
<polygon fill="darkgreen" stroke="darkgreen" points="788.46,-284.12 798.68,-281.36 788.97,-277.14 788.46,-284.12"/>
</g>
</g>
</svg>
