<?xml version="1.0" encoding="UTF-8" standalone="no"?>
<!DOCTYPE svg PUBLIC "-//W3C//DTD SVG 1.1//EN"
 "http://www.w3.org/Graphics/SVG/1.1/DTD/svg11.dtd">
<!-- Generated by graphviz version 2.43.0 (0)
 -->
<!-- Title: docker_compose Pages: 1 -->
<svg width="1140pt" height="908pt"
 viewBox="0.00 0.00 1140.00 908.00" xmlns="http://www.w3.org/2000/svg" xmlns:xlink="http://www.w3.org/1999/xlink">
<g id="graph0" class="graph" transform="scale(1 1) rotate(0) translate(4 904)">
<title>docker_compose</title>
<polygon fill="white" stroke="transparent" points="-4,4 -4,-904 1136,-904 1136,4 -4,4"/>
<!-- video&#45;indexer -->
<g id="node1" class="node">
<title>video&#45;indexer</title>
<polygon fill="lightblue" stroke="lightblue" points="423,-838 310,-838 310,-802 423,-802 423,-838"/>
<text text-anchor="middle" x="366.5" y="-816.3" font-family="Times,serif" font-size="14.00">video&#45;indexer</text>
</g>
<!-- net::storage_network -->
<g id="node2" class="node">
<title>net::storage_network</title>
<ellipse fill="lightgray" stroke="lightgray" cx="891" cy="-720" rx="88.28" ry="18"/>
<text text-anchor="middle" x="891" y="-716.3" font-family="Times,serif" font-size="14.00">storage_network</text>
</g>
<!-- video&#45;indexer&#45;&gt;net::storage_network -->
<g id="edge1" class="edge">
<title>video&#45;indexer&#45;&gt;net::storage_network</title>
<path fill="none" stroke="gray" stroke-dasharray="1,5" d="M423.08,-825.76C475.61,-828.58 554.94,-825.87 614,-793 636.68,-780.37 627.33,-759.66 650,-747 694.42,-722.19 750.65,-714.83 797.52,-713.96"/>
<polygon fill="gray" stroke="gray" points="797.71,-717.46 807.68,-713.87 797.65,-710.46 797.71,-717.46"/>
</g>
<!-- net::event_network -->
<g id="node3" class="node">
<title>net::event_network</title>
<ellipse fill="lightgray" stroke="lightgray" cx="891" cy="-612" rx="79.09" ry="18"/>
<text text-anchor="middle" x="891" y="-608.3" font-family="Times,serif" font-size="14.00">event_network</text>
</g>
<!-- video&#45;indexer&#45;&gt;net::event_network -->
<g id="edge2" class="edge">
<title>video&#45;indexer&#45;&gt;net::event_network</title>
<path fill="none" stroke="gray" stroke-dasharray="1,5" d="M423.23,-830.66C478.53,-837.8 562.29,-838.83 614,-793 666.61,-746.38 597.46,-685.7 650,-639 695.12,-598.9 765.4,-595.36 818.27,-599.95"/>
<polygon fill="gray" stroke="gray" points="817.96,-603.43 828.26,-600.93 818.65,-596.47 817.96,-603.43"/>
</g>
<!-- net::capture_network -->
<g id="node4" class="node">
<title>net::capture_network</title>
<ellipse fill="lightgray" stroke="lightgray" cx="891" cy="-342" rx="89.08" ry="18"/>
<text text-anchor="middle" x="891" y="-338.3" font-family="Times,serif" font-size="14.00">capture_network</text>
</g>
<!-- video&#45;indexer&#45;&gt;net::capture_network -->
<g id="edge3" class="edge">
<title>video&#45;indexer&#45;&gt;net::capture_network</title>
<path fill="none" stroke="gray" stroke-dasharray="1,5" d="M423.1,-831.94C479.52,-840.47 565.29,-842.91 614,-793 680.04,-725.32 584.05,-436.77 650,-369 692.24,-325.59 763.21,-322.57 817.05,-328.18"/>
<polygon fill="gray" stroke="gray" points="816.9,-331.69 827.24,-329.37 817.71,-324.74 816.9,-331.69"/>
</g>
<!-- vol::/mnt/b:/mnt/videos:ro -->
<g id="node5" class="node">
<title>vol::/mnt/b:/mnt/videos:ro</title>
<path fill="lightgreen" stroke="lightgreen" d="M976,-842.73C976,-844.53 937.9,-846 891,-846 844.1,-846 806,-844.53 806,-842.73 806,-842.73 806,-813.27 806,-813.27 806,-811.47 844.1,-810 891,-810 937.9,-810 976,-811.47 976,-813.27 976,-813.27 976,-842.73 976,-842.73"/>
<path fill="none" stroke="lightgreen" d="M976,-842.73C976,-840.92 937.9,-839.45 891,-839.45 844.1,-839.45 806,-840.92 806,-842.73"/>
<text text-anchor="middle" x="891" y="-824.3" font-family="Times,serif" font-size="14.00">/mnt/b:/mnt/videos:ro</text>
</g>
<!-- video&#45;indexer&#45;&gt;vol::/mnt/b:/mnt/videos:ro -->
<g id="edge4" class="edge">
<title>video&#45;indexer&#45;&gt;vol::/mnt/b:/mnt/videos:ro</title>
<path fill="none" stroke="darkgreen" stroke-dasharray="5,2" d="M423.42,-820.86C512.3,-822.22 686.83,-824.89 795.42,-826.55"/>
<polygon fill="darkgreen" stroke="darkgreen" points="795.66,-830.06 805.72,-826.71 795.77,-823.06 795.66,-830.06"/>
</g>
<!-- vol::./data:/data -->
<g id="node6" class="node">
<title>vol::./data:/data</title>
<path fill="lightgreen" stroke="lightgreen" d="M940,-788.73C940,-790.53 918.04,-792 891,-792 863.96,-792 842,-790.53 842,-788.73 842,-788.73 842,-759.27 842,-759.27 842,-757.47 863.96,-756 891,-756 918.04,-756 940,-757.47 940,-759.27 940,-759.27 940,-788.73 940,-788.73"/>
<path fill="none" stroke="lightgreen" d="M940,-788.73C940,-786.92 918.04,-785.45 891,-785.45 863.96,-785.45 842,-786.92 842,-788.73"/>
<text text-anchor="middle" x="891" y="-770.3" font-family="Times,serif" font-size="14.00">./data:/data</text>
</g>
<!-- video&#45;indexer&#45;&gt;vol::./data:/data -->
<g id="edge5" class="edge">
<title>video&#45;indexer&#45;&gt;vol::./data:/data</title>
<path fill="none" stroke="darkgreen" stroke-dasharray="5,2" d="M423.42,-815.08C523.06,-806.3 730.37,-788.05 831.7,-779.13"/>
<polygon fill="darkgreen" stroke="darkgreen" points="832.1,-782.61 841.76,-778.25 831.49,-775.64 832.1,-782.61"/>
</g>
<!-- vol::./repo&#45;data:/repo&#45;data -->
<g id="node7" class="node">
<title>vol::./repo&#45;data:/repo&#45;data</title>
<path fill="lightgreen" stroke="lightgreen" d="M976.5,-896.73C976.5,-898.53 938.18,-900 891,-900 843.82,-900 805.5,-898.53 805.5,-896.73 805.5,-896.73 805.5,-867.27 805.5,-867.27 805.5,-865.47 843.82,-864 891,-864 938.18,-864 976.5,-865.47 976.5,-867.27 976.5,-867.27 976.5,-896.73 976.5,-896.73"/>
<path fill="none" stroke="lightgreen" d="M976.5,-896.73C976.5,-894.92 938.18,-893.45 891,-893.45 843.82,-893.45 805.5,-894.92 805.5,-896.73"/>
<text text-anchor="middle" x="891" y="-878.3" font-family="Times,serif" font-size="14.00">./repo&#45;data:/repo&#45;data</text>
</g>
<!-- video&#45;indexer&#45;&gt;vol::./repo&#45;data:/repo&#45;data -->
<g id="edge6" class="edge">
<title>video&#45;indexer&#45;&gt;vol::./repo&#45;data:/repo&#45;data</title>
<path fill="none" stroke="darkgreen" stroke-dasharray="5,2" d="M423.05,-824.33C473.17,-828.66 548.8,-836.22 614,-847 630.17,-849.67 633.83,-852.3 650,-855 697.58,-862.94 750.86,-869.2 795.11,-873.68"/>
<polygon fill="darkgreen" stroke="darkgreen" points="794.98,-877.18 805.28,-874.69 795.68,-870.22 794.98,-877.18"/>
</g>
<!-- obs&#45;pi -->
<g id="node8" class="node">
<title>obs&#45;pi</title>
<polygon fill="lightblue" stroke="lightblue" points="396,-252 337,-252 337,-216 396,-216 396,-252"/>
<text text-anchor="middle" x="366.5" y="-230.3" font-family="Times,serif" font-size="14.00">obs&#45;pi</text>
</g>
<!-- obs&#45;pi&#45;&gt;net::capture_network -->
<g id="edge7" class="edge">
<title>obs&#45;pi&#45;&gt;net::capture_network</title>
<path fill="none" stroke="gray" stroke-dasharray="1,5" d="M396.34,-240.4C442.74,-251 536.62,-273.65 614,-300 630.41,-305.59 633.22,-310.65 650,-315 696.41,-327.02 749.24,-333.69 793.5,-337.39"/>
<polygon fill="gray" stroke="gray" points="793.43,-340.89 803.68,-338.2 793.99,-333.92 793.43,-340.89"/>
</g>
<!-- vol::./pi&#45;obs&#45;container/config:/root/.config/obs&#45;studio -->
<g id="node9" class="node">
<title>vol::./pi&#45;obs&#45;container/config:/root/.config/obs&#45;studio</title>
<path fill="lightgreen" stroke="lightgreen" d="M1069,-194.73C1069,-196.53 989.22,-198 891,-198 792.78,-198 713,-196.53 713,-194.73 713,-194.73 713,-165.27 713,-165.27 713,-163.47 792.78,-162 891,-162 989.22,-162 1069,-163.47 1069,-165.27 1069,-165.27 1069,-194.73 1069,-194.73"/>
<path fill="none" stroke="lightgreen" d="M1069,-194.73C1069,-192.92 989.22,-191.45 891,-191.45 792.78,-191.45 713,-192.92 713,-194.73"/>
<text text-anchor="middle" x="891" y="-176.3" font-family="Times,serif" font-size="14.00">./pi&#45;obs&#45;container/config:/root/.config/obs&#45;studio</text>
</g>
<!-- obs&#45;pi&#45;&gt;vol::./pi&#45;obs&#45;container/config:/root/.config/obs&#45;studio -->
<g id="edge8" class="edge">
<title>obs&#45;pi&#45;&gt;vol::./pi&#45;obs&#45;container/config:/root/.config/obs&#45;studio</title>
<path fill="none" stroke="darkgreen" stroke-dasharray="5,2" d="M396.34,-231.02C456.67,-224.78 600.33,-209.94 717.2,-197.86"/>
<polygon fill="darkgreen" stroke="darkgreen" points="717.76,-201.32 727.35,-196.81 717.04,-194.36 717.76,-201.32"/>
</g>
<!-- vol::./pi&#45;obs&#45;container/assets:/root/assets -->
<g id="node10" class="node">
<title>vol::./pi&#45;obs&#45;container/assets:/root/assets</title>
<path fill="lightgreen" stroke="lightgreen" d="M1030,-140.73C1030,-142.53 967.7,-144 891,-144 814.3,-144 752,-142.53 752,-140.73 752,-140.73 752,-111.27 752,-111.27 752,-109.47 814.3,-108 891,-108 967.7,-108 1030,-109.47 1030,-111.27 1030,-111.27 1030,-140.73 1030,-140.73"/>
<path fill="none" stroke="lightgreen" d="M1030,-140.73C1030,-138.92 967.7,-137.45 891,-137.45 814.3,-137.45 752,-138.92 752,-140.73"/>
<text text-anchor="middle" x="891" y="-122.3" font-family="Times,serif" font-size="14.00">./pi&#45;obs&#45;container/assets:/root/assets</text>
</g>
<!-- obs&#45;pi&#45;&gt;vol::./pi&#45;obs&#45;container/assets:/root/assets -->
<g id="edge9" class="edge">
<title>obs&#45;pi&#45;&gt;vol::./pi&#45;obs&#45;container/assets:/root/assets</title>
<path fill="none" stroke="darkgreen" stroke-dasharray="5,2" d="M396.39,-223.97C447.08,-206.78 555.66,-171.7 650,-153 679.38,-147.18 711.04,-142.5 741.44,-138.79"/>
<polygon fill="darkgreen" stroke="darkgreen" points="742.17,-142.23 751.69,-137.57 741.35,-135.27 742.17,-142.23"/>
</g>
<!-- vol::./pi&#45;obs&#45;container/scripts:/root/scripts -->
<g id="node11" class="node">
<title>vol::./pi&#45;obs&#45;container/scripts:/root/scripts</title>
<path fill="lightgreen" stroke="lightgreen" d="M1033.5,-302.73C1033.5,-304.53 969.63,-306 891,-306 812.37,-306 748.5,-304.53 748.5,-302.73 748.5,-302.73 748.5,-273.27 748.5,-273.27 748.5,-271.47 812.37,-270 891,-270 969.63,-270 1033.5,-271.47 1033.5,-273.27 1033.5,-273.27 1033.5,-302.73 1033.5,-302.73"/>
<path fill="none" stroke="lightgreen" d="M1033.5,-302.73C1033.5,-300.92 969.63,-299.45 891,-299.45 812.37,-299.45 748.5,-300.92 748.5,-302.73"/>
<text text-anchor="middle" x="891" y="-284.3" font-family="Times,serif" font-size="14.00">./pi&#45;obs&#45;container/scripts:/root/scripts</text>
</g>
<!-- obs&#45;pi&#45;&gt;vol::./pi&#45;obs&#45;container/scripts:/root/scripts -->
<g id="edge10" class="edge">
<title>obs&#45;pi&#45;&gt;vol::./pi&#45;obs&#45;container/scripts:/root/scripts</title>
<path fill="none" stroke="darkgreen" stroke-dasharray="5,2" d="M396.34,-236.98C460.38,-243.6 618.27,-259.92 738.39,-272.33"/>
<polygon fill="darkgreen" stroke="darkgreen" points="738.12,-275.82 748.43,-273.37 738.84,-268.86 738.12,-275.82"/>
</g>
<!-- vol::/mnt/b:/mnt/b:rw -->
<g id="node12" class="node">
<title>vol::/mnt/b:/mnt/b:rw</title>
<path fill="lightgreen" stroke="lightgreen" d="M959.5,-248.73C959.5,-250.53 928.8,-252 891,-252 853.2,-252 822.5,-250.53 822.5,-248.73 822.5,-248.73 822.5,-219.27 822.5,-219.27 822.5,-217.47 853.2,-216 891,-216 928.8,-216 959.5,-217.47 959.5,-219.27 959.5,-219.27 959.5,-248.73 959.5,-248.73"/>
<path fill="none" stroke="lightgreen" d="M959.5,-248.73C959.5,-246.92 928.8,-245.45 891,-245.45 853.2,-245.45 822.5,-246.92 822.5,-248.73"/>
<text text-anchor="middle" x="891" y="-230.3" font-family="Times,serif" font-size="14.00">/mnt/b:/mnt/b:rw</text>
</g>
<!-- obs&#45;pi&#45;&gt;vol::/mnt/b:/mnt/b:rw -->
<g id="edge11" class="edge">
<title>obs&#45;pi&#45;&gt;vol::/mnt/b:/mnt/b:rw</title>
<path fill="none" stroke="darkgreen" stroke-dasharray="5,2" d="M396.34,-234C474.81,-234 694.22,-234 812.35,-234"/>
<polygon fill="darkgreen" stroke="darkgreen" points="812.42,-237.5 822.42,-234 812.42,-230.5 812.42,-237.5"/>
</g>
<!-- webrtc&#45;pi -->
<g id="node13" class="node">
<title>webrtc&#45;pi</title>
<polygon fill="lightblue" stroke="lightblue" points="408.5,-90 324.5,-90 324.5,-54 408.5,-54 408.5,-90"/>
<text text-anchor="middle" x="366.5" y="-68.3" font-family="Times,serif" font-size="14.00">webrtc&#45;pi</text>
</g>
<!-- webrtc&#45;pi&#45;&gt;net::capture_network -->
<g id="edge12" class="edge">
<title>webrtc&#45;pi&#45;&gt;net::capture_network</title>
<path fill="none" stroke="gray" stroke-dasharray="1,5" d="M408.55,-84C463.09,-101.99 558.96,-141.08 614,-207 646.43,-245.84 610.67,-283.16 650,-315 694.07,-350.68 758.55,-356.2 809.59,-353.46"/>
<polygon fill="gray" stroke="gray" points="809.85,-356.95 819.6,-352.81 809.4,-349.97 809.85,-356.95"/>
</g>
<!-- vol::./webrtc&#45;server/app:/app -->
<g id="node14" class="node">
<title>vol::./webrtc&#45;server/app:/app</title>
<path fill="lightgreen" stroke="lightgreen" d="M986.5,-86.73C986.5,-88.53 943.7,-90 891,-90 838.3,-90 795.5,-88.53 795.5,-86.73 795.5,-86.73 795.5,-57.27 795.5,-57.27 795.5,-55.47 838.3,-54 891,-54 943.7,-54 986.5,-55.47 986.5,-57.27 986.5,-57.27 986.5,-86.73 986.5,-86.73"/>
<path fill="none" stroke="lightgreen" d="M986.5,-86.73C986.5,-84.92 943.7,-83.45 891,-83.45 838.3,-83.45 795.5,-84.92 795.5,-86.73"/>
<text text-anchor="middle" x="891" y="-68.3" font-family="Times,serif" font-size="14.00">./webrtc&#45;server/app:/app</text>
</g>
<!-- webrtc&#45;pi&#45;&gt;vol::./webrtc&#45;server/app:/app -->
<g id="edge13" class="edge">
<title>webrtc&#45;pi&#45;&gt;vol::./webrtc&#45;server/app:/app</title>
<path fill="none" stroke="darkgreen" stroke-dasharray="5,2" d="M408.94,-72C489.54,-72 669.62,-72 785.15,-72"/>
<polygon fill="darkgreen" stroke="darkgreen" points="785.43,-75.5 795.43,-72 785.43,-68.5 785.43,-75.5"/>
</g>
<!-- vol::./webrtc&#45;server/config/turnserver.conf:/etc/coturn/turnserver.conf -->
<g id="node15" class="node">
<title>vol::./webrtc&#45;server/config/turnserver.conf:/etc/coturn/turnserver.conf</title>
<path fill="lightgreen" stroke="lightgreen" d="M1132,-32.73C1132,-34.53 1023.98,-36 891,-36 758.02,-36 650,-34.53 650,-32.73 650,-32.73 650,-3.27 650,-3.27 650,-1.47 758.02,0 891,0 1023.98,0 1132,-1.47 1132,-3.27 1132,-3.27 1132,-32.73 1132,-32.73"/>
<path fill="none" stroke="lightgreen" d="M1132,-32.73C1132,-30.92 1023.98,-29.45 891,-29.45 758.02,-29.45 650,-30.92 650,-32.73"/>
<text text-anchor="middle" x="891" y="-14.3" font-family="Times,serif" font-size="14.00">./webrtc&#45;server/config/turnserver.conf:/etc/coturn/turnserver.conf</text>
</g>
<!-- webrtc&#45;pi&#45;&gt;vol::./webrtc&#45;server/config/turnserver.conf:/etc/coturn/turnserver.conf -->
<g id="edge14" class="edge">
<title>webrtc&#45;pi&#45;&gt;vol::./webrtc&#45;server/config/turnserver.conf:/etc/coturn/turnserver.conf</title>
<path fill="none" stroke="darkgreen" stroke-dasharray="5,2" d="M408.94,-67.72C473.66,-61.03 602.52,-47.71 710.6,-36.54"/>
<polygon fill="darkgreen" stroke="darkgreen" points="711.07,-40.01 720.66,-35.5 710.35,-33.05 711.07,-40.01"/>
</g>
<!-- rtsp&#45;pi -->
<g id="node16" class="node">
<title>rtsp&#45;pi</title>
<polygon fill="lightblue" stroke="lightblue" points="398.5,-399 334.5,-399 334.5,-363 398.5,-363 398.5,-399"/>
<text text-anchor="middle" x="366.5" y="-377.3" font-family="Times,serif" font-size="14.00">rtsp&#45;pi</text>
</g>
<!-- rtsp&#45;pi&#45;&gt;net::capture_network -->
<g id="edge15" class="edge">
<title>rtsp&#45;pi&#45;&gt;net::capture_network</title>
<path fill="none" stroke="gray" stroke-dasharray="1,5" d="M398.62,-378.68C475.58,-372.93 677.24,-357.88 796.94,-348.95"/>
<polygon fill="gray" stroke="gray" points="797.48,-352.42 807.19,-348.18 796.96,-345.43 797.48,-352.42"/>
</g>
<!-- rtmp&#45;server -->
<g id="node17" class="node">
<title>rtmp&#45;server</title>
<polygon fill="lightblue" stroke="lightblue" points="417.5,-492 315.5,-492 315.5,-456 417.5,-456 417.5,-492"/>
<text text-anchor="middle" x="366.5" y="-470.3" font-family="Times,serif" font-size="14.00">rtmp&#45;server</text>
</g>
<!-- rtmp&#45;server&#45;&gt;net::event_network -->
<g id="edge18" class="edge">
<title>rtmp&#45;server&#45;&gt;net::event_network</title>
<path fill="none" stroke="gray" stroke-dasharray="1,5" d="M417.65,-465.73C471.54,-459.72 557.09,-458.85 614,-501 646.64,-525.18 617.4,-560.78 650,-585 696.38,-619.46 762.38,-624.64 813.43,-622.08"/>
<polygon fill="gray" stroke="gray" points="813.66,-625.58 823.43,-621.48 813.24,-618.59 813.66,-625.58"/>
</g>
<!-- rtmp&#45;server&#45;&gt;net::capture_network -->
<g id="edge17" class="edge">
<title>rtmp&#45;server&#45;&gt;net::capture_network</title>
<path fill="none" stroke="gray" stroke-dasharray="1,5" d="M417.95,-468.85C470.18,-461.69 552.57,-445.11 614,-408 634.19,-395.8 628.95,-379.66 650,-369 694.17,-346.64 748.65,-339.16 794.53,-337.59"/>
<polygon fill="gray" stroke="gray" points="794.87,-341.08 804.78,-337.33 794.7,-334.09 794.87,-341.08"/>
</g>
<!-- vol::/mnt/b -->
<g id="node19" class="node">
<title>vol::/mnt/b</title>
<path fill="lightgreen" stroke="lightgreen" d="M922.5,-572.73C922.5,-574.53 908.38,-576 891,-576 873.62,-576 859.5,-574.53 859.5,-572.73 859.5,-572.73 859.5,-543.27 859.5,-543.27 859.5,-541.47 873.62,-540 891,-540 908.38,-540 922.5,-541.47 922.5,-543.27 922.5,-543.27 922.5,-572.73 922.5,-572.73"/>
<path fill="none" stroke="lightgreen" d="M922.5,-572.73C922.5,-570.92 908.38,-569.45 891,-569.45 873.62,-569.45 859.5,-570.92 859.5,-572.73"/>
<text text-anchor="middle" x="891" y="-554.3" font-family="Times,serif" font-size="14.00">/mnt/b</text>
</g>
<!-- rtmp&#45;server&#45;&gt;vol::/mnt/b -->
<g id="edge19" class="edge">
<title>rtmp&#45;server&#45;&gt;vol::/mnt/b</title>
<path fill="none" stroke="darkgreen" stroke-dasharray="5,2" d="M417.79,-471.19C469.16,-470.2 550.21,-473.89 614,-501 633.17,-509.15 630.84,-522.82 650,-531 715.57,-558.98 799.91,-561.71 849.16,-560.38"/>
<polygon fill="darkgreen" stroke="darkgreen" points="849.54,-563.87 859.41,-560.03 849.3,-556.87 849.54,-563.87"/>
</g>
<!-- vol::./public/assets:/usr/share/nginx/html/assets:ro -->
<g id="node20" class="node">
<title>vol::./public/assets:/usr/share/nginx/html/assets:ro</title>
<path fill="lightgreen" stroke="lightgreen" d="M1064,-518.73C1064,-520.53 986.46,-522 891,-522 795.54,-522 718,-520.53 718,-518.73 718,-518.73 718,-489.27 718,-489.27 718,-487.47 795.54,-486 891,-486 986.46,-486 1064,-487.47 1064,-489.27 1064,-489.27 1064,-518.73 1064,-518.73"/>
<path fill="none" stroke="lightgreen" d="M1064,-518.73C1064,-516.92 986.46,-515.45 891,-515.45 795.54,-515.45 718,-516.92 718,-518.73"/>
<text text-anchor="middle" x="891" y="-500.3" font-family="Times,serif" font-size="14.00">./public/assets:/usr/share/nginx/html/assets:ro</text>
</g>
<!-- rtmp&#45;server&#45;&gt;vol::./public/assets:/usr/share/nginx/html/assets:ro -->
<g id="edge20" class="edge">
<title>rtmp&#45;server&#45;&gt;vol::./public/assets:/usr/share/nginx/html/assets:ro</title>
<path fill="none" stroke="darkgreen" stroke-dasharray="5,2" d="M417.6,-476.88C484.03,-480.69 604.87,-487.63 707.7,-493.53"/>
<polygon fill="darkgreen" stroke="darkgreen" points="707.73,-497.04 717.91,-494.12 708.13,-490.05 707.73,-497.04"/>
</g>
<!-- vol::./credentials.json:/etc/credentials.json:ro -->
<g id="node21" class="node">
<title>vol::./credentials.json:/etc/credentials.json:ro</title>
<path fill="lightgreen" stroke="lightgreen" d="M1044.5,-464.73C1044.5,-466.53 975.7,-468 891,-468 806.3,-468 737.5,-466.53 737.5,-464.73 737.5,-464.73 737.5,-435.27 737.5,-435.27 737.5,-433.47 806.3,-432 891,-432 975.7,-432 1044.5,-433.47 1044.5,-435.27 1044.5,-435.27 1044.5,-464.73 1044.5,-464.73"/>
<path fill="none" stroke="lightgreen" d="M1044.5,-464.73C1044.5,-462.92 975.7,-461.45 891,-461.45 806.3,-461.45 737.5,-462.92 737.5,-464.73"/>
<text text-anchor="middle" x="891" y="-446.3" font-family="Times,serif" font-size="14.00">./credentials.json:/etc/credentials.json:ro</text>
</g>
<!-- rtmp&#45;server&#45;&gt;vol::./credentials.json:/etc/credentials.json:ro -->
<g id="edge21" class="edge">
<title>rtmp&#45;server&#45;&gt;vol::./credentials.json:/etc/credentials.json:ro</title>
<path fill="none" stroke="darkgreen" stroke-dasharray="5,2" d="M417.6,-471.7C488.24,-468.45 620.42,-462.38 727.03,-457.49"/>
<polygon fill="darkgreen" stroke="darkgreen" points="727.43,-460.97 737.26,-457.02 727.11,-453.98 727.43,-460.97"/>
</g>
<!-- vol::/tmp/rtmp&#45;recordings:/tmp/hls:rw -->
<g id="node22" class="node">
<title>vol::/tmp/rtmp&#45;recordings:/tmp/hls:rw</title>
<path fill="lightgreen" stroke="lightgreen" d="M1019.5,-410.73C1019.5,-412.53 961.9,-414 891,-414 820.1,-414 762.5,-412.53 762.5,-410.73 762.5,-410.73 762.5,-381.27 762.5,-381.27 762.5,-379.47 820.1,-378 891,-378 961.9,-378 1019.5,-379.47 1019.5,-381.27 1019.5,-381.27 1019.5,-410.73 1019.5,-410.73"/>
<path fill="none" stroke="lightgreen" d="M1019.5,-410.73C1019.5,-408.92 961.9,-407.45 891,-407.45 820.1,-407.45 762.5,-408.92 762.5,-410.73"/>
<text text-anchor="middle" x="891" y="-392.3" font-family="Times,serif" font-size="14.00">/tmp/rtmp&#45;recordings:/tmp/hls:rw</text>
</g>
<!-- rtmp&#45;server&#45;&gt;vol::/tmp/rtmp&#45;recordings:/tmp/hls:rw -->
<g id="edge22" class="edge">
<title>rtmp&#45;server&#45;&gt;vol::/tmp/rtmp&#45;recordings:/tmp/hls:rw</title>
<path fill="none" stroke="darkgreen" stroke-dasharray="5,2" d="M417.6,-463.91C473.94,-452.81 568.26,-434.96 650,-423 682.99,-418.17 718.65,-413.74 752.12,-409.92"/>
<polygon fill="darkgreen" stroke="darkgreen" points="752.9,-413.35 762.44,-408.75 752.11,-406.4 752.9,-413.35"/>
</g>
<!-- rabbitmq -->
<g id="node18" class="node">
<title>rabbitmq</title>
<polygon fill="lightblue" stroke="lightblue" points="83,-546 0,-546 0,-510 83,-510 83,-546"/>
<text text-anchor="middle" x="41.5" y="-524.3" font-family="Times,serif" font-size="14.00">rabbitmq</text>
</g>
<!-- rabbitmq&#45;&gt;net::event_network -->
<g id="edge28" class="edge">
<title>rabbitmq&#45;&gt;net::event_network</title>
<path fill="none" stroke="gray" stroke-dasharray="1,5" d="M83.22,-544.62C94.62,-548.65 107.15,-552.52 119,-555 135.61,-558.48 607.7,-592.07 804.82,-606"/>
<polygon fill="gray" stroke="gray" points="804.62,-609.49 814.84,-606.71 805.12,-602.51 804.62,-609.49"/>
</g>
<!-- rabbitmq&#45;&gt;rtmp&#45;server -->
<g id="edge16" class="edge">
<title>rabbitmq&#45;&gt;rtmp&#45;server</title>
<path fill="none" stroke="black" d="M83.28,-511.66C94.68,-507.62 107.19,-503.69 119,-501 181.63,-486.72 255,-479.91 305.31,-476.72"/>
<polygon fill="black" stroke="black" points="305.6,-480.21 315.37,-476.11 305.17,-473.22 305.6,-480.21"/>
</g>
<!-- vol::rabbitmq_data:/var/lib/rabbitmq -->
<g id="node27" class="node">
<title>vol::rabbitmq_data:/var/lib/rabbitmq</title>
<path fill="lightgreen" stroke="lightgreen" d="M489.5,-341.73C489.5,-343.53 434.37,-345 366.5,-345 298.63,-345 243.5,-343.53 243.5,-341.73 243.5,-341.73 243.5,-312.27 243.5,-312.27 243.5,-310.47 298.63,-309 366.5,-309 434.37,-309 489.5,-310.47 489.5,-312.27 489.5,-312.27 489.5,-341.73 489.5,-341.73"/>
<path fill="none" stroke="lightgreen" d="M489.5,-341.73C489.5,-339.92 434.37,-338.45 366.5,-338.45 298.63,-338.45 243.5,-339.92 243.5,-341.73"/>
<text text-anchor="middle" x="366.5" y="-323.3" font-family="Times,serif" font-size="14.00">rabbitmq_data:/var/lib/rabbitmq</text>
</g>
<!-- rabbitmq&#45;&gt;vol::rabbitmq_data:/var/lib/rabbitmq -->
<g id="edge29" class="edge">
<title>rabbitmq&#45;&gt;vol::rabbitmq_data:/var/lib/rabbitmq</title>
<path fill="none" stroke="darkgreen" stroke-dasharray="5,2" d="M44.58,-509.83C49.8,-473.51 66.98,-392.16 119,-354 151.56,-330.12 193.36,-320.11 233.25,-317.02"/>
<polygon fill="darkgreen" stroke="darkgreen" points="233.58,-320.5 243.34,-316.38 233.14,-313.52 233.58,-320.5"/>
</g>
<!-- vol::./event&#45;broker/config/rabbitmq.conf:/etc/rabbitmq/rabbitmq.conf:ro -->
<g id="node28" class="node">
<title>vol::./event&#45;broker/config/rabbitmq.conf:/etc/rabbitmq/rabbitmq.conf:ro</title>
<path fill="lightgreen" stroke="lightgreen" d="M614,-542.73C614,-544.53 503.07,-546 366.5,-546 229.93,-546 119,-544.53 119,-542.73 119,-542.73 119,-513.27 119,-513.27 119,-511.47 229.93,-510 366.5,-510 503.07,-510 614,-511.47 614,-513.27 614,-513.27 614,-542.73 614,-542.73"/>
<path fill="none" stroke="lightgreen" d="M614,-542.73C614,-540.92 503.07,-539.45 366.5,-539.45 229.93,-539.45 119,-540.92 119,-542.73"/>
<text text-anchor="middle" x="366.5" y="-524.3" font-family="Times,serif" font-size="14.00">./event&#45;broker/config/rabbitmq.conf:/etc/rabbitmq/rabbitmq.conf:ro</text>
</g>
<!-- rabbitmq&#45;&gt;vol::./event&#45;broker/config/rabbitmq.conf:/etc/rabbitmq/rabbitmq.conf:ro -->
<g id="edge30" class="edge">
<title>rabbitmq&#45;&gt;vol::./event&#45;broker/config/rabbitmq.conf:/etc/rabbitmq/rabbitmq.conf:ro</title>
<path fill="none" stroke="darkgreen" stroke-dasharray="5,2" d="M83.08,-528C90.8,-528 99.37,-528 108.59,-528"/>
<polygon fill="darkgreen" stroke="darkgreen" points="108.85,-531.5 118.85,-528 108.85,-524.5 108.85,-531.5"/>
</g>
<!-- metadata&#45;service -->
<g id="node29" class="node">
<title>metadata&#45;service</title>
<polygon fill="lightblue" stroke="lightblue" points="436.5,-638 296.5,-638 296.5,-602 436.5,-602 436.5,-638"/>
<text text-anchor="middle" x="366.5" y="-616.3" font-family="Times,serif" font-size="14.00">metadata&#45;service</text>
</g>
<!-- rabbitmq&#45;&gt;metadata&#45;service -->
<g id="edge31" class="edge">
<title>rabbitmq&#45;&gt;metadata&#45;service</title>
<path fill="none" stroke="black" d="M59.85,-546.15C74.29,-560.04 96.12,-578.4 119,-588 171.96,-610.21 236.47,-617.98 286.22,-620.31"/>
<polygon fill="black" stroke="black" points="286.14,-623.81 296.28,-620.72 286.43,-616.82 286.14,-623.81"/>
</g>
<!-- minio -->
<g id="node23" class="node">
<title>minio</title>
<polygon fill="lightblue" stroke="lightblue" points="69.5,-761 13.5,-761 13.5,-725 69.5,-725 69.5,-761"/>
<text text-anchor="middle" x="41.5" y="-739.3" font-family="Times,serif" font-size="14.00">minio</text>
</g>
<!-- minio&#45;&gt;net::storage_network -->
<g id="edge23" class="edge">
<title>minio&#45;&gt;net::storage_network</title>
<path fill="none" stroke="gray" stroke-dasharray="1,5" d="M69.75,-741.39C84.36,-740.58 102.65,-739.63 119,-739 361.05,-729.69 646.03,-724.05 792.38,-721.54"/>
<polygon fill="gray" stroke="gray" points="792.74,-725.04 802.68,-721.37 792.62,-718.04 792.74,-725.04"/>
</g>
<!-- vol::/mnt/b/rpi_sync/minio/data:/data -->
<g id="node24" class="node">
<title>vol::/mnt/b/rpi_sync/minio/data:/data</title>
<path fill="lightgreen" stroke="lightgreen" d="M490.5,-888.73C490.5,-890.53 434.92,-892 366.5,-892 298.08,-892 242.5,-890.53 242.5,-888.73 242.5,-888.73 242.5,-859.27 242.5,-859.27 242.5,-857.47 298.08,-856 366.5,-856 434.92,-856 490.5,-857.47 490.5,-859.27 490.5,-859.27 490.5,-888.73 490.5,-888.73"/>
<path fill="none" stroke="lightgreen" d="M490.5,-888.73C490.5,-886.92 434.92,-885.45 366.5,-885.45 298.08,-885.45 242.5,-886.92 242.5,-888.73"/>
<text text-anchor="middle" x="366.5" y="-870.3" font-family="Times,serif" font-size="14.00">/mnt/b/rpi_sync/minio/data:/data</text>
</g>
<!-- minio&#45;&gt;vol::/mnt/b/rpi_sync/minio/data:/data -->
<g id="edge24" class="edge">
<title>minio&#45;&gt;vol::/mnt/b/rpi_sync/minio/data:/data</title>
<path fill="none" stroke="darkgreen" stroke-dasharray="5,2" d="M50.23,-761.35C61.48,-785.53 84.82,-827.3 119,-847 152.81,-866.49 193.59,-875.56 232.15,-879.15"/>
<polygon fill="darkgreen" stroke="darkgreen" points="232.18,-882.66 242.43,-879.98 232.75,-875.69 232.18,-882.66"/>
</g>
<!-- vol::/mnt/nas/ -->
<g id="node25" class="node">
<title>vol::/mnt/nas/</title>
<path fill="lightgreen" stroke="lightgreen" d="M408,-780.73C408,-782.53 389.4,-784 366.5,-784 343.6,-784 325,-782.53 325,-780.73 325,-780.73 325,-751.27 325,-751.27 325,-749.47 343.6,-748 366.5,-748 389.4,-748 408,-749.47 408,-751.27 408,-751.27 408,-780.73 408,-780.73"/>
<path fill="none" stroke="lightgreen" d="M408,-780.73C408,-778.92 389.4,-777.45 366.5,-777.45 343.6,-777.45 325,-778.92 325,-780.73"/>
<text text-anchor="middle" x="366.5" y="-762.3" font-family="Times,serif" font-size="14.00">/mnt/nas/</text>
</g>
<!-- minio&#45;&gt;vol::/mnt/nas/ -->
<g id="edge25" class="edge">
<title>minio&#45;&gt;vol::/mnt/nas/</title>
<path fill="none" stroke="darkgreen" stroke-dasharray="5,2" d="M69.76,-744.94C123.79,-748.79 245.23,-757.44 314.51,-762.37"/>
<polygon fill="darkgreen" stroke="darkgreen" points="314.53,-765.88 324.76,-763.1 315.03,-758.9 314.53,-765.88"/>
</g>
<!-- minio&#45;init -->
<g id="node26" class="node">
<title>minio&#45;init</title>
<polygon fill="lightblue" stroke="lightblue" points="409,-692 324,-692 324,-656 409,-656 409,-692"/>
<text text-anchor="middle" x="366.5" y="-670.3" font-family="Times,serif" font-size="14.00">minio&#45;init</text>
</g>
<!-- minio&#45;&gt;minio&#45;init -->
<g id="edge26" class="edge">
<title>minio&#45;&gt;minio&#45;init</title>
<path fill="none" stroke="black" d="M69.61,-727.24C83.87,-719.65 101.89,-711.1 119,-706 184.39,-686.5 263.03,-678.88 313.62,-675.91"/>
<polygon fill="black" stroke="black" points="313.86,-679.4 323.66,-675.35 313.48,-672.41 313.86,-679.4"/>
</g>
<!-- minio&#45;init&#45;&gt;net::storage_network -->
<g id="edge27" class="edge">
<title>minio&#45;init&#45;&gt;net::storage_network</title>
<path fill="none" stroke="gray" stroke-dasharray="1,5" d="M409.38,-677.69C493.53,-685.1 684.86,-701.94 799.11,-712"/>
<polygon fill="gray" stroke="gray" points="798.97,-715.5 809.24,-712.89 799.59,-708.53 798.97,-715.5"/>
</g>
<!-- metadata&#45;service&#45;&gt;net::storage_network -->
<g id="edge33" class="edge">
<title>metadata&#45;service&#45;&gt;net::storage_network</title>
<path fill="none" stroke="gray" stroke-dasharray="1,5" d="M436.66,-613.67C488.61,-612.07 559.83,-616.85 614,-647 636.68,-659.63 627.33,-680.34 650,-693 694.42,-717.81 750.65,-725.17 797.52,-726.04"/>
<polygon fill="gray" stroke="gray" points="797.65,-729.54 807.68,-726.13 797.71,-722.54 797.65,-729.54"/>
</g>
<!-- metadata&#45;service&#45;&gt;net::event_network -->
<g id="edge32" class="edge">
<title>metadata&#45;service&#45;&gt;net::event_network</title>
<path fill="none" stroke="gray" stroke-dasharray="1,5" d="M436.61,-618.94C530.56,-617.5 698.64,-614.93 801.64,-613.35"/>
<polygon fill="gray" stroke="gray" points="801.76,-616.85 811.71,-613.2 801.66,-609.85 801.76,-616.85"/>
</g>
<!-- vol::./metadata&#45;service:/app -->
<g id="node30" class="node">
<title>vol::./metadata&#45;service:/app</title>
<path fill="lightgreen" stroke="lightgreen" d="M983,-680.73C983,-682.53 941.76,-684 891,-684 840.24,-684 799,-682.53 799,-680.73 799,-680.73 799,-651.27 799,-651.27 799,-649.47 840.24,-648 891,-648 941.76,-648 983,-649.47 983,-651.27 983,-651.27 983,-680.73 983,-680.73"/>
<path fill="none" stroke="lightgreen" d="M983,-680.73C983,-678.92 941.76,-677.45 891,-677.45 840.24,-677.45 799,-678.92 799,-680.73"/>
<text text-anchor="middle" x="891" y="-662.3" font-family="Times,serif" font-size="14.00">./metadata&#45;service:/app</text>
</g>
<!-- metadata&#45;service&#45;&gt;vol::./metadata&#45;service:/app -->
<g id="edge34" class="edge">
<title>metadata&#45;service&#45;&gt;vol::./metadata&#45;service:/app</title>
<path fill="none" stroke="darkgreen" stroke-dasharray="5,2" d="M436.61,-626.08C526.67,-634.01 684.84,-647.94 788.51,-657.07"/>
<polygon fill="darkgreen" stroke="darkgreen" points="788.42,-660.57 798.68,-657.96 789.03,-653.6 788.42,-660.57"/>
</g>
</g>
</svg>
