<?xml version="1.0" encoding="UTF-8" standalone="no"?>
<!DOCTYPE svg PUBLIC "-//W3C//DTD SVG 1.1//EN"
 "http://www.w3.org/Graphics/SVG/1.1/DTD/svg11.dtd">
<!-- Generated by graphviz version 2.43.0 (0)
 -->
<!-- Title: docker_compose Pages: 1 -->
<svg width="1140pt" height="898pt"
 viewBox="0.00 0.00 1140.00 898.00" xmlns="http://www.w3.org/2000/svg" xmlns:xlink="http://www.w3.org/1999/xlink">
<g id="graph0" class="graph" transform="scale(1 1) rotate(0) translate(4 894)">
<title>docker_compose</title>
<polygon fill="white" stroke="transparent" points="-4,4 -4,-894 1136,-894 1136,4 -4,4"/>
<!-- obs&#45;pi -->
<g id="node1" class="node">
<title>obs&#45;pi</title>
<polygon fill="lightblue" stroke="lightblue" points="396,-782 337,-782 337,-746 396,-746 396,-782"/>
<text text-anchor="middle" x="366.5" y="-760.3" font-family="Times,serif" font-size="14.00">obs&#45;pi</text>
</g>
<!-- net::capture_network -->
<g id="node2" class="node">
<title>net::capture_network</title>
<ellipse fill="lightgray" stroke="lightgray" cx="891" cy="-656" rx="89.08" ry="18"/>
<text text-anchor="middle" x="891" y="-652.3" font-family="Times,serif" font-size="14.00">capture_network</text>
</g>
<!-- obs&#45;pi&#45;&gt;net::capture_network -->
<g id="edge1" class="edge">
<title>obs&#45;pi&#45;&gt;net::capture_network</title>
<path fill="none" stroke="gray" stroke-dasharray="1,5" d="M396.39,-753.97C447.08,-736.78 555.66,-701.7 650,-683 697.99,-673.49 752.09,-667.04 796.76,-662.84"/>
<polygon fill="gray" stroke="gray" points="797.09,-666.32 806.73,-661.92 796.45,-659.35 797.09,-666.32"/>
</g>
<!-- vol::./pi&#45;obs&#45;container/config:/root/.config/obs&#45;studio -->
<g id="node3" class="node">
<title>vol::./pi&#45;obs&#45;container/config:/root/.config/obs&#45;studio</title>
<path fill="lightgreen" stroke="lightgreen" d="M1069,-886.73C1069,-888.53 989.22,-890 891,-890 792.78,-890 713,-888.53 713,-886.73 713,-886.73 713,-857.27 713,-857.27 713,-855.47 792.78,-854 891,-854 989.22,-854 1069,-855.47 1069,-857.27 1069,-857.27 1069,-886.73 1069,-886.73"/>
<path fill="none" stroke="lightgreen" d="M1069,-886.73C1069,-884.92 989.22,-883.45 891,-883.45 792.78,-883.45 713,-884.92 713,-886.73"/>
<text text-anchor="middle" x="891" y="-868.3" font-family="Times,serif" font-size="14.00">./pi&#45;obs&#45;container/config:/root/.config/obs&#45;studio</text>
</g>
<!-- obs&#45;pi&#45;&gt;vol::./pi&#45;obs&#45;container/config:/root/.config/obs&#45;studio -->
<g id="edge2" class="edge">
<title>obs&#45;pi&#45;&gt;vol::./pi&#45;obs&#45;container/config:/root/.config/obs&#45;studio</title>
<path fill="none" stroke="darkgreen" stroke-dasharray="5,2" d="M396.39,-774.03C447.08,-791.22 555.66,-826.3 650,-845 667.09,-848.39 684.96,-851.39 702.9,-854.03"/>
<polygon fill="darkgreen" stroke="darkgreen" points="702.47,-857.51 712.87,-855.47 703.47,-850.58 702.47,-857.51"/>
</g>
<!-- vol::./pi&#45;obs&#45;container/assets:/root/assets -->
<g id="node4" class="node">
<title>vol::./pi&#45;obs&#45;container/assets:/root/assets</title>
<path fill="lightgreen" stroke="lightgreen" d="M1030,-832.73C1030,-834.53 967.7,-836 891,-836 814.3,-836 752,-834.53 752,-832.73 752,-832.73 752,-803.27 752,-803.27 752,-801.47 814.3,-800 891,-800 967.7,-800 1030,-801.47 1030,-803.27 1030,-803.27 1030,-832.73 1030,-832.73"/>
<path fill="none" stroke="lightgreen" d="M1030,-832.73C1030,-830.92 967.7,-829.45 891,-829.45 814.3,-829.45 752,-830.92 752,-832.73"/>
<text text-anchor="middle" x="891" y="-814.3" font-family="Times,serif" font-size="14.00">./pi&#45;obs&#45;container/assets:/root/assets</text>
</g>
<!-- obs&#45;pi&#45;&gt;vol::./pi&#45;obs&#45;container/assets:/root/assets -->
<g id="edge3" class="edge">
<title>obs&#45;pi&#45;&gt;vol::./pi&#45;obs&#45;container/assets:/root/assets</title>
<path fill="none" stroke="darkgreen" stroke-dasharray="5,2" d="M396.34,-766.98C461,-773.66 621.36,-790.24 741.89,-802.69"/>
<polygon fill="darkgreen" stroke="darkgreen" points="741.65,-806.19 751.96,-803.73 742.37,-799.22 741.65,-806.19"/>
</g>
<!-- vol::./pi&#45;obs&#45;container/scripts:/root/scripts -->
<g id="node5" class="node">
<title>vol::./pi&#45;obs&#45;container/scripts:/root/scripts</title>
<path fill="lightgreen" stroke="lightgreen" d="M1033.5,-778.73C1033.5,-780.53 969.63,-782 891,-782 812.37,-782 748.5,-780.53 748.5,-778.73 748.5,-778.73 748.5,-749.27 748.5,-749.27 748.5,-747.47 812.37,-746 891,-746 969.63,-746 1033.5,-747.47 1033.5,-749.27 1033.5,-749.27 1033.5,-778.73 1033.5,-778.73"/>
<path fill="none" stroke="lightgreen" d="M1033.5,-778.73C1033.5,-776.92 969.63,-775.45 891,-775.45 812.37,-775.45 748.5,-776.92 748.5,-778.73"/>
<text text-anchor="middle" x="891" y="-760.3" font-family="Times,serif" font-size="14.00">./pi&#45;obs&#45;container/scripts:/root/scripts</text>
</g>
<!-- obs&#45;pi&#45;&gt;vol::./pi&#45;obs&#45;container/scripts:/root/scripts -->
<g id="edge4" class="edge">
<title>obs&#45;pi&#45;&gt;vol::./pi&#45;obs&#45;container/scripts:/root/scripts</title>
<path fill="none" stroke="darkgreen" stroke-dasharray="5,2" d="M396.34,-764C460.38,-764 618.27,-764 738.39,-764"/>
<polygon fill="darkgreen" stroke="darkgreen" points="738.43,-767.5 748.43,-764 738.43,-760.5 738.43,-767.5"/>
</g>
<!-- vol::/mnt/b:/mnt/b:rw -->
<g id="node6" class="node">
<title>vol::/mnt/b:/mnt/b:rw</title>
<path fill="lightgreen" stroke="lightgreen" d="M959.5,-724.73C959.5,-726.53 928.8,-728 891,-728 853.2,-728 822.5,-726.53 822.5,-724.73 822.5,-724.73 822.5,-695.27 822.5,-695.27 822.5,-693.47 853.2,-692 891,-692 928.8,-692 959.5,-693.47 959.5,-695.27 959.5,-695.27 959.5,-724.73 959.5,-724.73"/>
<path fill="none" stroke="lightgreen" d="M959.5,-724.73C959.5,-722.92 928.8,-721.45 891,-721.45 853.2,-721.45 822.5,-722.92 822.5,-724.73"/>
<text text-anchor="middle" x="891" y="-706.3" font-family="Times,serif" font-size="14.00">/mnt/b:/mnt/b:rw</text>
</g>
<!-- obs&#45;pi&#45;&gt;vol::/mnt/b:/mnt/b:rw -->
<g id="edge5" class="edge">
<title>obs&#45;pi&#45;&gt;vol::/mnt/b:/mnt/b:rw</title>
<path fill="none" stroke="darkgreen" stroke-dasharray="5,2" d="M396.34,-761.02C474.81,-752.91 694.22,-730.23 812.35,-718.02"/>
<polygon fill="darkgreen" stroke="darkgreen" points="812.83,-721.49 822.42,-716.98 812.11,-714.53 812.83,-721.49"/>
</g>
<!-- webrtc&#45;pi -->
<g id="node7" class="node">
<title>webrtc&#45;pi</title>
<polygon fill="lightblue" stroke="lightblue" points="408.5,-620 324.5,-620 324.5,-584 408.5,-584 408.5,-620"/>
<text text-anchor="middle" x="366.5" y="-598.3" font-family="Times,serif" font-size="14.00">webrtc&#45;pi</text>
</g>
<!-- webrtc&#45;pi&#45;&gt;net::capture_network -->
<g id="edge6" class="edge">
<title>webrtc&#45;pi&#45;&gt;net::capture_network</title>
<path fill="none" stroke="gray" stroke-dasharray="1,5" d="M408.94,-606.28C493.4,-615.01 687.13,-635.03 801.31,-646.83"/>
<polygon fill="gray" stroke="gray" points="801.12,-650.33 811.42,-647.88 801.84,-643.37 801.12,-650.33"/>
</g>
<!-- vol::./webrtc&#45;server/app:/app -->
<g id="node8" class="node">
<title>vol::./webrtc&#45;server/app:/app</title>
<path fill="lightgreen" stroke="lightgreen" d="M986.5,-616.73C986.5,-618.53 943.7,-620 891,-620 838.3,-620 795.5,-618.53 795.5,-616.73 795.5,-616.73 795.5,-587.27 795.5,-587.27 795.5,-585.47 838.3,-584 891,-584 943.7,-584 986.5,-585.47 986.5,-587.27 986.5,-587.27 986.5,-616.73 986.5,-616.73"/>
<path fill="none" stroke="lightgreen" d="M986.5,-616.73C986.5,-614.92 943.7,-613.45 891,-613.45 838.3,-613.45 795.5,-614.92 795.5,-616.73"/>
<text text-anchor="middle" x="891" y="-598.3" font-family="Times,serif" font-size="14.00">./webrtc&#45;server/app:/app</text>
</g>
<!-- webrtc&#45;pi&#45;&gt;vol::./webrtc&#45;server/app:/app -->
<g id="edge7" class="edge">
<title>webrtc&#45;pi&#45;&gt;vol::./webrtc&#45;server/app:/app</title>
<path fill="none" stroke="darkgreen" stroke-dasharray="5,2" d="M408.94,-602C489.54,-602 669.62,-602 785.15,-602"/>
<polygon fill="darkgreen" stroke="darkgreen" points="785.43,-605.5 795.43,-602 785.43,-598.5 785.43,-605.5"/>
</g>
<!-- vol::./webrtc&#45;server/config/turnserver.conf:/etc/coturn/turnserver.conf -->
<g id="node9" class="node">
<title>vol::./webrtc&#45;server/config/turnserver.conf:/etc/coturn/turnserver.conf</title>
<path fill="lightgreen" stroke="lightgreen" d="M1132,-562.73C1132,-564.53 1023.98,-566 891,-566 758.02,-566 650,-564.53 650,-562.73 650,-562.73 650,-533.27 650,-533.27 650,-531.47 758.02,-530 891,-530 1023.98,-530 1132,-531.47 1132,-533.27 1132,-533.27 1132,-562.73 1132,-562.73"/>
<path fill="none" stroke="lightgreen" d="M1132,-562.73C1132,-560.92 1023.98,-559.45 891,-559.45 758.02,-559.45 650,-560.92 650,-562.73"/>
<text text-anchor="middle" x="891" y="-544.3" font-family="Times,serif" font-size="14.00">./webrtc&#45;server/config/turnserver.conf:/etc/coturn/turnserver.conf</text>
</g>
<!-- webrtc&#45;pi&#45;&gt;vol::./webrtc&#45;server/config/turnserver.conf:/etc/coturn/turnserver.conf -->
<g id="edge8" class="edge">
<title>webrtc&#45;pi&#45;&gt;vol::./webrtc&#45;server/config/turnserver.conf:/etc/coturn/turnserver.conf</title>
<path fill="none" stroke="darkgreen" stroke-dasharray="5,2" d="M408.94,-597.72C473.66,-591.03 602.52,-577.71 710.6,-566.54"/>
<polygon fill="darkgreen" stroke="darkgreen" points="711.07,-570.01 720.66,-565.5 710.35,-563.05 711.07,-570.01"/>
</g>
<!-- rtsp&#45;pi -->
<g id="node10" class="node">
<title>rtsp&#45;pi</title>
<polygon fill="lightblue" stroke="lightblue" points="398.5,-674 334.5,-674 334.5,-638 398.5,-638 398.5,-674"/>
<text text-anchor="middle" x="366.5" y="-652.3" font-family="Times,serif" font-size="14.00">rtsp&#45;pi</text>
</g>
<!-- rtsp&#45;pi&#45;&gt;net::capture_network -->
<g id="edge9" class="edge">
<title>rtsp&#45;pi&#45;&gt;net::capture_network</title>
<path fill="none" stroke="gray" stroke-dasharray="1,5" d="M398.62,-656C474.4,-656 671.11,-656 791.41,-656"/>
<polygon fill="gray" stroke="gray" points="791.73,-659.5 801.73,-656 791.73,-652.5 791.73,-659.5"/>
</g>
<!-- rtmp&#45;server -->
<g id="node11" class="node">
<title>rtmp&#45;server</title>
<polygon fill="lightblue" stroke="lightblue" points="417.5,-448 315.5,-448 315.5,-412 417.5,-412 417.5,-448"/>
<text text-anchor="middle" x="366.5" y="-426.3" font-family="Times,serif" font-size="14.00">rtmp&#45;server</text>
</g>
<!-- rtmp&#45;server&#45;&gt;net::capture_network -->
<g id="edge11" class="edge">
<title>rtmp&#45;server&#45;&gt;net::capture_network</title>
<path fill="none" stroke="gray" stroke-dasharray="1,5" d="M410.57,-448.05C463.04,-471.57 552.3,-516.68 614,-575 634.96,-594.81 625.37,-613.99 650,-629 694.37,-656.05 752.03,-663.23 799.71,-663.45"/>
<polygon fill="gray" stroke="gray" points="799.75,-666.95 809.73,-663.4 799.71,-659.95 799.75,-666.95"/>
</g>
<!-- net::event_network -->
<g id="node13" class="node">
<title>net::event_network</title>
<ellipse fill="lightgray" stroke="lightgray" cx="891" cy="-278" rx="79.09" ry="18"/>
<text text-anchor="middle" x="891" y="-274.3" font-family="Times,serif" font-size="14.00">event_network</text>
</g>
<!-- rtmp&#45;server&#45;&gt;net::event_network -->
<g id="edge12" class="edge">
<title>rtmp&#45;server&#45;&gt;net::event_network</title>
<path fill="none" stroke="gray" stroke-dasharray="1,5" d="M417.59,-438.78C471.83,-445.34 558.05,-446.77 614,-403 650.54,-374.41 613.5,-333.65 650,-305 696.08,-268.84 763.33,-264.1 814.92,-267.26"/>
<polygon fill="gray" stroke="gray" points="814.8,-270.76 825.02,-267.99 815.3,-263.78 814.8,-270.76"/>
</g>
<!-- vol::/mnt/b -->
<g id="node14" class="node">
<title>vol::/mnt/b</title>
<path fill="lightgreen" stroke="lightgreen" d="M922.5,-346.73C922.5,-348.53 908.38,-350 891,-350 873.62,-350 859.5,-348.53 859.5,-346.73 859.5,-346.73 859.5,-317.27 859.5,-317.27 859.5,-315.47 873.62,-314 891,-314 908.38,-314 922.5,-315.47 922.5,-317.27 922.5,-317.27 922.5,-346.73 922.5,-346.73"/>
<path fill="none" stroke="lightgreen" d="M922.5,-346.73C922.5,-344.92 908.38,-343.45 891,-343.45 873.62,-343.45 859.5,-344.92 859.5,-346.73"/>
<text text-anchor="middle" x="891" y="-328.3" font-family="Times,serif" font-size="14.00">/mnt/b</text>
</g>
<!-- rtmp&#45;server&#45;&gt;vol::/mnt/b -->
<g id="edge13" class="edge">
<title>rtmp&#45;server&#45;&gt;vol::/mnt/b</title>
<path fill="none" stroke="darkgreen" stroke-dasharray="5,2" d="M417.52,-435.18C469.76,-438.25 552.51,-436.36 614,-403 636.21,-390.95 627.81,-371.08 650,-359 713.09,-324.65 799.22,-324.19 849.3,-327.63"/>
<polygon fill="darkgreen" stroke="darkgreen" points="849.17,-331.13 859.42,-328.42 849.72,-324.16 849.17,-331.13"/>
</g>
<!-- vol::./public/assets:/usr/share/nginx/html/assets:ro -->
<g id="node15" class="node">
<title>vol::./public/assets:/usr/share/nginx/html/assets:ro</title>
<path fill="lightgreen" stroke="lightgreen" d="M1064,-508.73C1064,-510.53 986.46,-512 891,-512 795.54,-512 718,-510.53 718,-508.73 718,-508.73 718,-479.27 718,-479.27 718,-477.47 795.54,-476 891,-476 986.46,-476 1064,-477.47 1064,-479.27 1064,-479.27 1064,-508.73 1064,-508.73"/>
<path fill="none" stroke="lightgreen" d="M1064,-508.73C1064,-506.92 986.46,-505.45 891,-505.45 795.54,-505.45 718,-506.92 718,-508.73"/>
<text text-anchor="middle" x="891" y="-490.3" font-family="Times,serif" font-size="14.00">./public/assets:/usr/share/nginx/html/assets:ro</text>
</g>
<!-- rtmp&#45;server&#45;&gt;vol::./public/assets:/usr/share/nginx/html/assets:ro -->
<g id="edge14" class="edge">
<title>rtmp&#45;server&#45;&gt;vol::./public/assets:/usr/share/nginx/html/assets:ro</title>
<path fill="none" stroke="darkgreen" stroke-dasharray="5,2" d="M417.73,-436.86C474.19,-444.5 568.61,-457.09 650,-467 674.53,-469.99 700.48,-473.03 725.9,-475.94"/>
<polygon fill="darkgreen" stroke="darkgreen" points="725.66,-479.44 735.99,-477.09 726.45,-472.48 725.66,-479.44"/>
</g>
<!-- vol::./credentials.json:/etc/credentials.json:ro -->
<g id="node16" class="node">
<title>vol::./credentials.json:/etc/credentials.json:ro</title>
<path fill="lightgreen" stroke="lightgreen" d="M1044.5,-454.73C1044.5,-456.53 975.7,-458 891,-458 806.3,-458 737.5,-456.53 737.5,-454.73 737.5,-454.73 737.5,-425.27 737.5,-425.27 737.5,-423.47 806.3,-422 891,-422 975.7,-422 1044.5,-423.47 1044.5,-425.27 1044.5,-425.27 1044.5,-454.73 1044.5,-454.73"/>
<path fill="none" stroke="lightgreen" d="M1044.5,-454.73C1044.5,-452.92 975.7,-451.45 891,-451.45 806.3,-451.45 737.5,-452.92 737.5,-454.73"/>
<text text-anchor="middle" x="891" y="-436.3" font-family="Times,serif" font-size="14.00">./credentials.json:/etc/credentials.json:ro</text>
</g>
<!-- rtmp&#45;server&#45;&gt;vol::./credentials.json:/etc/credentials.json:ro -->
<g id="edge15" class="edge">
<title>rtmp&#45;server&#45;&gt;vol::./credentials.json:/etc/credentials.json:ro</title>
<path fill="none" stroke="darkgreen" stroke-dasharray="5,2" d="M417.6,-430.96C488.24,-432.31 620.42,-434.84 727.03,-436.88"/>
<polygon fill="darkgreen" stroke="darkgreen" points="727.2,-440.38 737.26,-437.08 727.33,-433.39 727.2,-440.38"/>
</g>
<!-- vol::/tmp/rtmp&#45;recordings:/tmp/hls:rw -->
<g id="node17" class="node">
<title>vol::/tmp/rtmp&#45;recordings:/tmp/hls:rw</title>
<path fill="lightgreen" stroke="lightgreen" d="M1019.5,-400.73C1019.5,-402.53 961.9,-404 891,-404 820.1,-404 762.5,-402.53 762.5,-400.73 762.5,-400.73 762.5,-371.27 762.5,-371.27 762.5,-369.47 820.1,-368 891,-368 961.9,-368 1019.5,-369.47 1019.5,-371.27 1019.5,-371.27 1019.5,-400.73 1019.5,-400.73"/>
<path fill="none" stroke="lightgreen" d="M1019.5,-400.73C1019.5,-398.92 961.9,-397.45 891,-397.45 820.1,-397.45 762.5,-398.92 762.5,-400.73"/>
<text text-anchor="middle" x="891" y="-382.3" font-family="Times,serif" font-size="14.00">/tmp/rtmp&#45;recordings:/tmp/hls:rw</text>
</g>
<!-- rtmp&#45;server&#45;&gt;vol::/tmp/rtmp&#45;recordings:/tmp/hls:rw -->
<g id="edge16" class="edge">
<title>rtmp&#45;server&#45;&gt;vol::/tmp/rtmp&#45;recordings:/tmp/hls:rw</title>
<path fill="none" stroke="darkgreen" stroke-dasharray="5,2" d="M417.6,-425.78C493.89,-419.36 641.93,-406.89 752.05,-397.62"/>
<polygon fill="darkgreen" stroke="darkgreen" points="752.57,-401.09 762.24,-396.76 751.99,-394.11 752.57,-401.09"/>
</g>
<!-- rabbitmq -->
<g id="node12" class="node">
<title>rabbitmq</title>
<polygon fill="lightblue" stroke="lightblue" points="83,-340 0,-340 0,-304 83,-304 83,-340"/>
<text text-anchor="middle" x="41.5" y="-318.3" font-family="Times,serif" font-size="14.00">rabbitmq</text>
</g>
<!-- rabbitmq&#45;&gt;rtmp&#45;server -->
<g id="edge10" class="edge">
<title>rabbitmq&#45;&gt;rtmp&#45;server</title>
<path fill="none" stroke="black" d="M53.79,-340.04C66.9,-359.25 90.42,-388.79 119,-403 177.54,-432.12 253.38,-436.19 305.39,-434.68"/>
<polygon fill="black" stroke="black" points="305.6,-438.18 315.46,-434.31 305.34,-431.18 305.6,-438.18"/>
</g>
<!-- rabbitmq&#45;&gt;net::event_network -->
<g id="edge22" class="edge">
<title>rabbitmq&#45;&gt;net::event_network</title>
<path fill="none" stroke="gray" stroke-dasharray="1,5" d="M83.14,-304.97C94.54,-300.94 107.08,-297.18 119,-295 365.47,-249.98 663.59,-261.69 806.14,-271.25"/>
<polygon fill="gray" stroke="gray" points="805.92,-274.75 816.14,-271.94 806.4,-267.76 805.92,-274.75"/>
</g>
<!-- vol::rabbitmq_data:/var/lib/rabbitmq -->
<g id="node23" class="node">
<title>vol::rabbitmq_data:/var/lib/rabbitmq</title>
<path fill="lightgreen" stroke="lightgreen" d="M489.5,-390.73C489.5,-392.53 434.37,-394 366.5,-394 298.63,-394 243.5,-392.53 243.5,-390.73 243.5,-390.73 243.5,-361.27 243.5,-361.27 243.5,-359.47 298.63,-358 366.5,-358 434.37,-358 489.5,-359.47 489.5,-361.27 489.5,-361.27 489.5,-390.73 489.5,-390.73"/>
<path fill="none" stroke="lightgreen" d="M489.5,-390.73C489.5,-388.92 434.37,-387.45 366.5,-387.45 298.63,-387.45 243.5,-388.92 243.5,-390.73"/>
<text text-anchor="middle" x="366.5" y="-372.3" font-family="Times,serif" font-size="14.00">rabbitmq_data:/var/lib/rabbitmq</text>
</g>
<!-- rabbitmq&#45;&gt;vol::rabbitmq_data:/var/lib/rabbitmq -->
<g id="edge23" class="edge">
<title>rabbitmq&#45;&gt;vol::rabbitmq_data:/var/lib/rabbitmq</title>
<path fill="none" stroke="darkgreen" stroke-dasharray="5,2" d="M83.28,-338.34C94.68,-342.38 107.19,-346.31 119,-349 155.54,-357.33 195.74,-363.12 232.88,-367.13"/>
<polygon fill="darkgreen" stroke="darkgreen" points="232.96,-370.66 243.27,-368.22 233.69,-363.7 232.96,-370.66"/>
</g>
<!-- vol::./event&#45;broker/config/rabbitmq.conf:/etc/rabbitmq/rabbitmq.conf:ro -->
<g id="node24" class="node">
<title>vol::./event&#45;broker/config/rabbitmq.conf:/etc/rabbitmq/rabbitmq.conf:ro</title>
<path fill="lightgreen" stroke="lightgreen" d="M614,-336.73C614,-338.53 503.07,-340 366.5,-340 229.93,-340 119,-338.53 119,-336.73 119,-336.73 119,-307.27 119,-307.27 119,-305.47 229.93,-304 366.5,-304 503.07,-304 614,-305.47 614,-307.27 614,-307.27 614,-336.73 614,-336.73"/>
<path fill="none" stroke="lightgreen" d="M614,-336.73C614,-334.92 503.07,-333.45 366.5,-333.45 229.93,-333.45 119,-334.92 119,-336.73"/>
<text text-anchor="middle" x="366.5" y="-318.3" font-family="Times,serif" font-size="14.00">./event&#45;broker/config/rabbitmq.conf:/etc/rabbitmq/rabbitmq.conf:ro</text>
</g>
<!-- rabbitmq&#45;&gt;vol::./event&#45;broker/config/rabbitmq.conf:/etc/rabbitmq/rabbitmq.conf:ro -->
<g id="edge24" class="edge">
<title>rabbitmq&#45;&gt;vol::./event&#45;broker/config/rabbitmq.conf:/etc/rabbitmq/rabbitmq.conf:ro</title>
<path fill="none" stroke="darkgreen" stroke-dasharray="5,2" d="M83.08,-322C90.8,-322 99.37,-322 108.59,-322"/>
<polygon fill="darkgreen" stroke="darkgreen" points="108.85,-325.5 118.85,-322 108.85,-318.5 108.85,-325.5"/>
</g>
<!-- metadata&#45;service -->
<g id="node25" class="node">
<title>metadata&#45;service</title>
<polygon fill="lightblue" stroke="lightblue" points="436.5,-244 296.5,-244 296.5,-208 436.5,-208 436.5,-244"/>
<text text-anchor="middle" x="366.5" y="-222.3" font-family="Times,serif" font-size="14.00">metadata&#45;service</text>
</g>
<!-- rabbitmq&#45;&gt;metadata&#45;service -->
<g id="edge25" class="edge">
<title>rabbitmq&#45;&gt;metadata&#45;service</title>
<path fill="none" stroke="black" d="M59.89,-303.95C74.36,-290.11 96.2,-271.78 119,-262 171.9,-239.32 236.41,-230.49 286.17,-227.24"/>
<polygon fill="black" stroke="black" points="286.46,-230.73 296.24,-226.65 286.05,-223.74 286.46,-230.73"/>
</g>
<!-- minio -->
<g id="node18" class="node">
<title>minio</title>
<polygon fill="lightblue" stroke="lightblue" points="69.5,-117 13.5,-117 13.5,-81 69.5,-81 69.5,-117"/>
<text text-anchor="middle" x="41.5" y="-95.3" font-family="Times,serif" font-size="14.00">minio</text>
</g>
<!-- net::storage_network -->
<g id="node19" class="node">
<title>net::storage_network</title>
<ellipse fill="lightgray" stroke="lightgray" cx="891" cy="-170" rx="88.28" ry="18"/>
<text text-anchor="middle" x="891" y="-166.3" font-family="Times,serif" font-size="14.00">storage_network</text>
</g>
<!-- minio&#45;&gt;net::storage_network -->
<g id="edge17" class="edge">
<title>minio&#45;&gt;net::storage_network</title>
<path fill="none" stroke="gray" stroke-dasharray="1,5" d="M61.15,-117.02C75.64,-129.73 96.92,-145.72 119,-153 241.63,-193.42 617.15,-182.58 794.87,-174.78"/>
<polygon fill="gray" stroke="gray" points="795.16,-178.27 804.99,-174.33 794.84,-171.28 795.16,-178.27"/>
</g>
<!-- vol::/mnt/b/rpi_sync/minio/data:/data -->
<g id="node20" class="node">
<title>vol::/mnt/b/rpi_sync/minio/data:/data</title>
<path fill="lightgreen" stroke="lightgreen" d="M490.5,-140.73C490.5,-142.53 434.92,-144 366.5,-144 298.08,-144 242.5,-142.53 242.5,-140.73 242.5,-140.73 242.5,-111.27 242.5,-111.27 242.5,-109.47 298.08,-108 366.5,-108 434.92,-108 490.5,-109.47 490.5,-111.27 490.5,-111.27 490.5,-140.73 490.5,-140.73"/>
<path fill="none" stroke="lightgreen" d="M490.5,-140.73C490.5,-138.92 434.92,-137.45 366.5,-137.45 298.08,-137.45 242.5,-138.92 242.5,-140.73"/>
<text text-anchor="middle" x="366.5" y="-122.3" font-family="Times,serif" font-size="14.00">/mnt/b/rpi_sync/minio/data:/data</text>
</g>
<!-- minio&#45;&gt;vol::/mnt/b/rpi_sync/minio/data:/data -->
<g id="edge18" class="edge">
<title>minio&#45;&gt;vol::/mnt/b/rpi_sync/minio/data:/data</title>
<path fill="none" stroke="darkgreen" stroke-dasharray="5,2" d="M69.76,-101.28C105.78,-104.29 171.75,-109.8 232.25,-114.86"/>
<polygon fill="darkgreen" stroke="darkgreen" points="232.05,-118.36 242.3,-115.7 232.63,-111.38 232.05,-118.36"/>
</g>
<!-- vol::/mnt/nas/ -->
<g id="node21" class="node">
<title>vol::/mnt/nas/</title>
<path fill="lightgreen" stroke="lightgreen" d="M408,-86.73C408,-88.53 389.4,-90 366.5,-90 343.6,-90 325,-88.53 325,-86.73 325,-86.73 325,-57.27 325,-57.27 325,-55.47 343.6,-54 366.5,-54 389.4,-54 408,-55.47 408,-57.27 408,-57.27 408,-86.73 408,-86.73"/>
<path fill="none" stroke="lightgreen" d="M408,-86.73C408,-84.92 389.4,-83.45 366.5,-83.45 343.6,-83.45 325,-84.92 325,-86.73"/>
<text text-anchor="middle" x="366.5" y="-68.3" font-family="Times,serif" font-size="14.00">/mnt/nas/</text>
</g>
<!-- minio&#45;&gt;vol::/mnt/nas/ -->
<g id="edge19" class="edge">
<title>minio&#45;&gt;vol::/mnt/nas/</title>
<path fill="none" stroke="darkgreen" stroke-dasharray="5,2" d="M69.76,-96.72C123.79,-92.2 245.23,-82.05 314.51,-76.26"/>
<polygon fill="darkgreen" stroke="darkgreen" points="315.08,-79.73 324.76,-75.41 314.5,-72.75 315.08,-79.73"/>
</g>
<!-- minio&#45;init -->
<g id="node22" class="node">
<title>minio&#45;init</title>
<polygon fill="lightblue" stroke="lightblue" points="409,-36 324,-36 324,0 409,0 409,-36"/>
<text text-anchor="middle" x="366.5" y="-14.3" font-family="Times,serif" font-size="14.00">minio&#45;init</text>
</g>
<!-- minio&#45;&gt;minio&#45;init -->
<g id="edge20" class="edge">
<title>minio&#45;&gt;minio&#45;init</title>
<path fill="none" stroke="black" d="M62.28,-80.75C76.83,-68.45 97.71,-53.06 119,-45 183.04,-20.76 262.65,-16.22 313.76,-16.25"/>
<polygon fill="black" stroke="black" points="313.89,-19.75 323.91,-16.32 313.93,-12.75 313.89,-19.75"/>
</g>
<!-- minio&#45;init&#45;&gt;net::storage_network -->
<g id="edge21" class="edge">
<title>minio&#45;init&#45;&gt;net::storage_network</title>
<path fill="none" stroke="gray" stroke-dasharray="1,5" d="M409.24,-18.58C458.88,-20.18 543.83,-25.79 614,-45 703.02,-69.37 799.67,-119.06 851.67,-147.91"/>
<polygon fill="gray" stroke="gray" points="850.11,-151.04 860.54,-152.87 853.52,-144.93 850.11,-151.04"/>
</g>
<!-- metadata&#45;service&#45;&gt;net::event_network -->
<g id="edge26" class="edge">
<title>metadata&#45;service&#45;&gt;net::event_network</title>
<path fill="none" stroke="gray" stroke-dasharray="1,5" d="M436.61,-232.88C532.57,-242.43 705.87,-259.68 808.17,-269.86"/>
<polygon fill="gray" stroke="gray" points="807.85,-273.34 818.15,-270.85 808.55,-266.38 807.85,-273.34"/>
</g>
<!-- metadata&#45;service&#45;&gt;net::storage_network -->
<g id="edge27" class="edge">
<title>metadata&#45;service&#45;&gt;net::storage_network</title>
<path fill="none" stroke="gray" stroke-dasharray="1,5" d="M436.61,-218.59C530.69,-208.51 699.12,-190.46 802.08,-179.42"/>
<polygon fill="gray" stroke="gray" points="802.57,-182.89 812.14,-178.34 801.83,-175.93 802.57,-182.89"/>
</g>
<!-- vol::./metadata&#45;service:/app -->
<g id="node26" class="node">
<title>vol::./metadata&#45;service:/app</title>
<path fill="lightgreen" stroke="lightgreen" d="M983,-238.73C983,-240.53 941.76,-242 891,-242 840.24,-242 799,-240.53 799,-238.73 799,-238.73 799,-209.27 799,-209.27 799,-207.47 840.24,-206 891,-206 941.76,-206 983,-207.47 983,-209.27 983,-209.27 983,-238.73 983,-238.73"/>
<path fill="none" stroke="lightgreen" d="M983,-238.73C983,-236.92 941.76,-235.45 891,-235.45 840.24,-235.45 799,-236.92 799,-238.73"/>
<text text-anchor="middle" x="891" y="-220.3" font-family="Times,serif" font-size="14.00">./metadata&#45;service:/app</text>
</g>
<!-- metadata&#45;service&#45;&gt;vol::./metadata&#45;service:/app -->
<g id="edge28" class="edge">
<title>metadata&#45;service&#45;&gt;vol::./metadata&#45;service:/app</title>
<path fill="none" stroke="darkgreen" stroke-dasharray="5,2" d="M436.61,-225.74C526.67,-225.39 684.84,-224.79 788.51,-224.39"/>
<polygon fill="darkgreen" stroke="darkgreen" points="788.7,-227.89 798.68,-224.35 788.67,-220.89 788.7,-227.89"/>
</g>
</g>
</svg>
