<svg version="1.1" id="Layer_1" xmlns="http://www.w3.org/2000/svg" xmlns:xlink="http://www.w3.org/1999/xlink" x="0px" y="0px"
	 width="100%" viewBox="0 0 380 675" enable-background="new 0 0 380 675" xml:space="preserve">
<path fill="#FEFEFE" opacity="1.000000" stroke="none" 
	d="
M1.000000,231.000000 
	C1.000000,154.018127 1.000000,77.536247 1.000000,1.027188 
	C127.618523,1.027188 254.237061,1.027188 380.927795,1.027188 
	C380.927795,225.898544 380.927795,450.797119 380.927795,675.847839 
	C254.333450,675.847839 127.666756,675.847839 1.000000,675.847839 
	C1.000000,527.763000 1.000000,379.631500 1.000000,231.000000 
M351.572968,295.817535 
	C351.463348,291.046753 351.353729,286.275970 351.165527,281.498230 
	C351.165527,281.498230 351.244141,281.490997 351.822601,280.786377 
	C351.698822,273.813324 351.575043,266.840302 351.716705,258.990784 
	C351.629578,254.655655 351.542419,250.320526 351.910797,245.189041 
	C351.757599,243.081329 351.604401,240.973602 351.716583,237.991379 
	C351.627899,233.697464 351.539185,229.403564 351.893768,224.537903 
	C351.809692,223.369858 351.725647,222.201797 351.895111,220.369766 
	C351.899536,219.429901 351.903961,218.490051 352.376404,217.154724 
	C352.447235,216.383972 352.518066,215.613220 352.831482,214.160217 
	C352.895447,213.440247 352.959412,212.720276 353.566681,211.581406 
	C353.396942,209.880630 353.227203,208.179840 352.998871,205.696335 
	C352.890320,200.127090 352.781799,194.557831 352.958435,188.095184 
	C352.942383,183.079163 352.926361,178.063126 353.230286,172.207352 
	C353.106628,169.159744 352.982971,166.112137 352.943604,162.203629 
	C352.818390,157.137619 352.693176,152.071609 352.894684,146.605453 
	C352.600586,146.070267 352.306488,145.535065 352.030090,144.062698 
	C352.030334,129.233963 352.066864,114.405106 352.021088,99.576508 
	C351.971191,83.420593 351.845032,67.264908 352.039978,50.341999 
	C351.368347,46.227974 350.696686,42.113949 350.421173,37.543224 
	C349.047638,34.402382 348.082214,30.994101 346.229645,28.167179 
	C338.400146,16.219805 327.578308,8.971536 312.398163,7.481631 
	C310.747559,7.341991 309.096893,7.079587 307.446350,7.080366 
	C234.128967,7.114940 160.811584,7.165219 87.494308,7.280159 
	C85.995461,7.282508 84.497833,8.068651 82.168587,8.631660 
	C78.783356,8.820166 75.398117,9.008672 71.611282,8.612369 
	C64.457977,9.304348 57.876858,11.261586 52.752609,17.294367 
	C52.752609,17.294367 52.421097,17.477455 51.746387,17.243938 
	C50.805401,18.120993 49.864414,18.998047 48.402771,20.270205 
	C46.846344,22.063768 45.289917,23.857330 43.129425,25.951010 
	C40.907181,31.014721 38.684933,36.078430 36.232342,41.747925 
	C36.236839,42.179111 36.241341,42.610302 35.804642,43.551270 
	C35.815708,44.426903 35.826775,45.302532 35.587723,46.975182 
	C35.627621,48.343815 35.667522,49.712452 35.428680,51.876118 
	C35.434036,53.280632 35.439392,54.685143 34.876141,56.655350 
	C34.138187,73.853569 33.205425,91.046936 32.777794,108.252869 
	C32.644855,113.601707 34.451462,118.993965 34.363129,124.349739 
	C34.211037,133.570740 32.580734,142.796310 32.815445,151.988190 
	C33.194378,166.828247 31.055555,181.708649 34.218327,196.566238 
	C35.253941,201.431183 32.660885,206.952759 32.773754,212.151321 
	C33.136585,228.862701 34.452785,245.560486 34.560200,262.268921 
	C34.834122,304.879486 34.644020,347.492950 34.681324,390.105225 
	C34.683022,392.047882 35.092136,393.990173 35.195549,396.871155 
	C35.238708,412.267700 35.281872,427.664276 34.875103,443.723389 
	C34.801338,451.194763 34.618740,458.667175 34.687355,466.137238 
	C34.744919,472.403717 35.095493,478.667511 35.195969,485.870331 
	C35.238991,492.933838 35.282013,499.997314 34.875103,507.723389 
	C34.801342,515.862122 34.628628,524.001648 34.687950,532.139404 
	C34.728764,537.738403 35.091339,543.335083 35.194977,549.871277 
	C35.186939,571.292480 35.116013,592.713989 35.211494,614.134705 
	C35.238056,620.093506 35.757381,626.050049 35.760994,632.361145 
	C35.922886,632.892334 36.084778,633.423462 36.209251,634.601685 
	C36.295284,635.022278 36.381317,635.442810 36.396217,636.606567 
	C38.560616,641.124878 40.725014,645.643127 43.076973,650.685974 
	C43.439793,651.094910 43.802608,651.503845 44.257172,652.577637 
	C47.220192,655.299500 50.183216,658.021301 53.097343,660.838318 
	C53.097343,660.838318 53.202496,660.857849 53.307648,661.493835 
	C54.257599,661.870850 55.207550,662.247803 56.614872,662.938904 
	C56.964291,663.057739 57.313709,663.176514 57.883739,663.895081 
	C58.641655,664.135254 59.399570,664.375427 60.797405,665.014404 
	C67.881836,666.476807 74.940170,669.031860 82.055473,669.201721 
	C105.718239,669.766785 129.401459,669.474854 153.302429,669.959900 
	C153.839035,669.800598 154.375626,669.641296 155.774872,669.666077 
	C160.215225,669.602661 164.655563,669.539307 169.633102,670.081726 
	C187.359116,670.186890 205.085098,670.304321 222.811234,670.349243 
	C223.472397,670.350891 224.135345,669.647339 225.520248,669.474670 
	C226.268234,669.529358 227.016235,669.584045 227.797516,669.969666 
	C227.797516,669.969666 228.120605,669.882080 228.120605,669.882080 
	C228.120605,669.882080 227.787704,669.711670 229.182678,669.617859 
	C229.643509,669.687317 230.104355,669.756775 230.490891,670.014648 
	C230.490891,670.014648 230.515701,670.116882 230.515701,670.116882 
	C230.515701,670.116882 230.517288,669.821777 231.540390,669.641357 
	C231.881195,669.702820 232.222000,669.764282 232.492966,670.019104 
	C232.492966,670.019104 232.514557,670.122925 232.514557,670.122925 
	C232.514557,670.122925 232.517334,669.821716 233.541718,669.637390 
	C233.882889,669.700378 234.224060,669.763428 234.490860,670.015015 
	C234.490860,670.015015 234.514465,670.117554 234.514465,670.117554 
	C234.514465,670.117554 234.517792,669.821838 235.082901,669.624695 
	C236.782394,669.511230 238.481873,669.397827 240.307190,669.851196 
	C241.294189,669.652405 242.281189,669.453613 244.167923,669.346252 
	C260.508118,669.324768 276.848328,669.303223 293.523834,669.959961 
	C296.082275,669.697632 298.640717,669.435364 301.905212,669.279419 
	C302.604126,669.180359 303.303070,669.081299 304.629089,669.510498 
	C315.867401,670.771912 325.961182,668.045715 334.945251,661.076965 
	C353.183105,646.930054 353.867798,627.405518 351.741913,606.054871 
	C351.645020,602.412170 351.548157,598.769470 351.907959,594.269287 
	C351.948944,589.824280 352.078186,585.377991 352.012085,580.934631 
	C351.882782,572.244568 351.644440,563.556213 351.717133,553.985229 
	C351.616089,546.255615 351.515045,538.525940 351.844788,529.988831 
	C351.701660,525.388550 351.558533,520.788208 351.666504,515.266846 
	C351.596558,510.503021 351.526611,505.739166 351.913391,500.143219 
	C351.952545,490.335632 352.067719,480.527496 352.002533,470.720612 
	C351.963043,464.774231 351.644531,458.829681 351.717102,451.999390 
	C351.628479,436.372498 351.539886,420.745575 351.908295,404.262848 
	C351.741913,392.505066 351.575562,380.747253 351.677032,368.217712 
	C351.601837,364.515533 351.526611,360.813385 351.908264,356.259399 
	C351.755920,351.128662 351.603577,345.997955 351.717041,339.986389 
	C351.614349,329.328094 351.511658,318.669800 351.921295,307.346832 
	C351.565216,303.970215 351.209106,300.593597 350.805847,297.217834 
	C350.805847,297.217834 350.830231,296.842102 351.572968,295.817535 
z"/>
<path fill="#494949" opacity="1.000000" stroke="none" 
	d="
M169.095917,669.475891 
	C164.655563,669.539307 160.215225,669.602661 155.229309,669.358765 
	C154.148102,669.204773 153.612473,669.358093 153.076843,669.511475 
	C129.401459,669.474854 105.718239,669.766785 82.055473,669.201721 
	C74.940170,669.031860 67.881836,666.476807 60.412636,664.482727 
	C59.239620,663.732422 58.451378,663.513855 57.663132,663.295288 
	C57.313709,663.176514 56.964291,663.057739 56.347874,662.454712 
	C55.121418,661.599670 54.161957,661.228760 53.202496,660.857849 
	C53.202496,660.857849 53.097343,660.838318 53.080425,660.458862 
	C50.097485,657.357178 47.131458,654.635010 44.165432,651.912781 
	C43.802608,651.503845 43.439793,651.094910 43.014565,650.044678 
	C40.790558,644.890076 38.628956,640.376709 36.467354,635.863403 
	C36.381317,635.442810 36.295284,635.022278 36.442345,634.134888 
	C36.467171,633.114624 36.258904,632.561096 36.050636,632.007629 
	C35.757381,626.050049 35.238056,620.093506 35.211494,614.134705 
	C35.116013,592.713989 35.186939,571.292480 35.491013,549.073669 
	C35.850414,539.802979 36.004669,531.329285 35.943810,522.857117 
	C35.905979,517.590515 35.542404,512.326172 35.325035,507.060822 
	C35.282013,499.997314 35.238991,492.933838 35.492687,485.071777 
	C35.851986,475.800690 36.005272,467.327484 35.943871,458.855835 
	C35.905697,453.589600 35.542408,448.325745 35.325035,443.060822 
	C35.281872,427.664276 35.238708,412.267700 35.491722,396.073364 
	C35.851395,394.449219 35.975540,393.622375 35.969719,392.796478 
	C35.629906,344.573853 35.261299,296.351379 34.942009,248.128616 
	C34.858273,235.481766 34.893463,222.833771 34.964851,210.186798 
	C34.972771,208.783768 35.579216,207.384109 36.191490,206.288269 
	C37.936859,224.696579 34.993595,242.993637 38.871750,260.990112 
	C38.868591,356.319672 38.864834,451.649200 38.862667,546.978760 
	C38.862103,571.977783 38.822010,596.977051 38.966698,621.975281 
	C38.976551,623.677490 40.390652,625.371521 41.296604,627.249878 
	C41.550331,627.732727 41.556213,628.037048 41.334675,628.767212 
	C41.149639,629.775696 41.089104,630.360413 40.806267,631.040405 
	C40.808060,631.431763 41.032154,631.727722 41.406776,632.022583 
	C41.750874,632.083679 41.949200,632.109741 42.351978,632.447876 
	C48.173893,652.283386 63.554356,663.875488 83.861565,663.877869 
	C135.306046,663.883728 186.750519,663.867737 238.194992,663.868103 
	C262.474426,663.868347 286.753845,663.886108 311.023193,664.277954 
	C311.010101,665.422119 311.007111,666.184326 310.624573,666.997437 
	C308.164032,667.692932 306.083008,668.337524 304.001984,668.982178 
	C303.303070,669.081299 302.604126,669.180359 301.142883,669.071716 
	C297.983215,669.003235 295.585876,669.142456 293.188507,669.281677 
	C276.848328,669.303223 260.508118,669.324768 243.425232,669.137085 
	C241.848816,669.046753 241.015091,669.165588 240.181366,669.284424 
	C238.481873,669.397827 236.782394,669.511230 234.808640,669.756592 
	C234.534378,669.888428 234.565247,669.826416 234.565247,669.826416 
	C234.224060,669.763428 233.882889,669.700378 233.037598,669.762817 
	C232.533493,669.888184 232.562805,669.825684 232.562805,669.825684 
	C232.222000,669.764282 231.881195,669.702820 231.037384,669.764771 
	C230.534363,669.888123 230.565186,669.826233 230.565186,669.826233 
	C230.104355,669.756775 229.643509,669.687317 228.518280,669.669922 
	C227.853897,669.721985 227.764221,669.638672 227.764221,669.638672 
	C227.016235,669.584045 226.268234,669.529358 224.824326,669.174438 
	C218.031204,668.638184 211.932877,668.186279 205.837067,668.217896 
	C197.099167,668.263245 188.362274,668.636475 179.626633,668.921326 
	C176.114105,669.035889 172.606018,669.286926 169.095917,669.475891 
M185.788910,666.044067 
	C194.801514,666.044067 203.814133,666.044067 212.826736,666.044067 
	C212.820724,665.806335 212.814697,665.568665 212.808670,665.330933 
	C202.211075,665.330933 191.613495,665.330933 181.015900,665.330933 
	C181.016464,665.567017 181.017029,665.803040 181.017593,666.039124 
	C182.307114,666.039124 183.596634,666.039124 185.788910,666.044067 
M150.583176,665.123169 
	C150.429459,665.294189 150.275742,665.465210 150.122055,665.636292 
	C150.254227,665.735413 150.386276,665.921204 150.518555,665.921387 
	C159.689819,665.934998 168.861099,665.933716 178.032379,665.933716 
	C178.031555,665.643677 178.030731,665.353638 178.029922,665.063599 
	C169.142914,665.063599 160.255920,665.063599 150.583176,665.123169 
z"/>
<path fill="#191919" opacity="1.000000" stroke="none" 
	d="
M351.414001,530.796326 
	C351.515045,538.525940 351.616089,546.255615 351.187561,554.394653 
	C350.078339,555.678223 349.002686,556.547668 348.994110,557.427429 
	C348.880554,569.074524 348.859253,580.723999 349.025543,592.369751 
	C349.038818,593.300171 350.606140,594.208313 351.451233,595.126770 
	C351.548157,598.769470 351.645020,602.412170 351.315247,606.538086 
	C350.180847,613.533997 349.473053,620.046753 348.559174,626.851074 
	C348.086487,627.838135 347.819885,628.533569 347.553284,629.229004 
	C347.100250,628.829529 346.647186,628.430115 346.156189,627.561523 
	C346.123016,619.931763 346.131927,612.771118 346.131989,605.610413 
	C346.134247,426.910583 346.112793,248.210739 346.185883,69.510941 
	C346.190979,57.040997 346.731079,44.596920 340.948669,33.089157 
	C342.028229,32.960011 342.646484,32.898067 343.532440,33.052029 
	C344.970642,35.478809 346.141144,37.689682 347.202972,40.270439 
	C347.766083,43.065849 348.437866,45.491375 348.915405,48.295280 
	C348.497101,49.634823 348.076508,50.596169 348.077393,51.557125 
	C348.105774,82.710434 348.174774,113.863708 348.176147,145.480957 
	C349.091187,170.967224 346.128998,196.079849 349.823181,221.399139 
	C350.356445,222.875732 350.903442,223.992691 351.450470,225.109650 
	C351.539185,229.403564 351.627899,233.697464 351.230347,238.373123 
	C344.630951,241.789642 349.700409,243.724503 351.455292,245.985397 
	C351.542419,250.320526 351.629578,254.655655 351.187500,259.397339 
	C350.160706,260.183502 349.221527,260.574463 349.230988,260.940918 
	C349.403229,267.602478 349.689514,274.261078 349.963776,281.210815 
	C349.967926,281.694427 349.959808,281.887482 349.893433,282.468628 
	C349.660339,286.718201 349.485504,290.579681 349.147461,294.707825 
	C349.079468,296.504608 349.174744,298.034821 349.160797,300.025330 
	C349.834747,302.995087 346.554749,306.777313 351.408997,308.011505 
	C351.511658,318.669800 351.614349,329.328094 351.190521,340.394287 
	C347.927368,344.144684 348.365692,353.223358 351.451416,357.111206 
	C351.526611,360.813385 351.601837,364.515533 351.100342,368.575470 
	C350.019257,369.507874 349.099304,370.064026 349.072723,370.659973 
	C348.677917,379.512390 348.128845,388.374207 348.263428,397.223969 
	C348.303680,399.871094 350.333160,402.487946 351.451263,405.118683 
	C351.539886,420.745575 351.628479,436.372498 351.216675,452.504944 
	C349.967438,456.007904 348.701691,458.980957 348.559296,462.006897 
	C347.943329,475.095459 347.063293,488.244873 351.456696,500.975342 
	C351.526611,505.739166 351.596558,510.503021 351.097656,515.640259 
	C349.957825,520.729797 349.365784,525.443970 348.926758,530.172363 
	C348.914703,530.302246 350.547974,530.584900 351.414001,530.796326 
z"/>
<path fill="#494949" opacity="1.000000" stroke="none" 
	d="
M72.012886,9.197178 
	C75.398117,9.008672 78.783356,8.820166 82.909073,8.817233 
	C116.263702,9.084331 148.877838,9.225312 181.491989,9.232077 
	C220.765930,9.240222 260.039948,9.106433 299.313812,9.138613 
	C302.019745,9.140830 304.724976,10.013241 307.003235,10.663811 
	C304.467773,11.202069 302.361877,11.849324 300.251007,11.865817 
	C285.922943,11.977770 271.593842,11.974269 257.265076,11.975437 
	C198.284378,11.980248 139.303665,11.965137 80.323029,12.020488 
	C78.906265,12.021817 77.490181,12.761985 76.047997,13.366341 
	C76.022209,13.575137 76.000633,13.995348 75.642159,14.129635 
	C61.824089,17.351080 51.412437,24.488377 44.671272,37.059719 
	C43.120525,39.796013 41.953346,42.485321 40.413460,45.170311 
	C39.663017,47.074974 39.285286,48.983959 38.586731,50.908882 
	C37.413078,50.976910 36.560253,51.028996 35.707424,51.081085 
	C35.667522,49.712452 35.627621,48.343815 35.952126,46.443092 
	C36.292969,44.954494 36.269405,43.997993 36.245838,43.041489 
	C36.241341,42.610302 36.236839,42.179111 36.668175,41.348724 
	C39.313835,35.849983 41.523659,30.750437 43.733490,25.650890 
	C45.289917,23.857330 46.846344,22.063768 48.997978,20.136070 
	C50.535824,19.160444 51.478462,18.318951 52.421097,17.477455 
	C52.421097,17.477455 52.752609,17.294367 53.249382,17.218176 
	C59.835064,14.493716 65.923973,11.845447 72.012886,9.197178 
z"/>
<path fill="#7B7B7B" opacity="1.000000" stroke="none" 
	d="
M35.908081,205.982895 
	C35.579216,207.384109 34.972771,208.783768 34.964851,210.186798 
	C34.893463,222.833771 34.858273,235.481766 34.942009,248.128616 
	C35.261299,296.351379 35.629906,344.573853 35.969719,392.796478 
	C35.975540,393.622375 35.851395,394.449219 35.549694,395.604126 
	C35.092136,393.990173 34.683022,392.047882 34.681324,390.105225 
	C34.644020,347.492950 34.834122,304.879486 34.560200,262.268921 
	C34.452785,245.560486 33.136585,228.862701 32.773754,212.151321 
	C32.660885,206.952759 35.253941,201.431183 34.218327,196.566238 
	C31.055555,181.708649 33.194378,166.828247 32.815445,151.988190 
	C32.580734,142.796310 34.211037,133.570740 34.363129,124.349739 
	C34.451462,118.993965 32.644855,113.601707 32.777794,108.252869 
	C33.205425,91.046936 34.138187,73.853569 35.415688,56.690231 
	C36.106533,67.171364 36.257839,77.617615 36.258671,88.489090 
	C35.910038,91.293182 35.711880,93.672043 35.340260,96.253860 
	C35.276615,97.287376 35.386433,98.117943 35.553879,99.389580 
	C35.574265,101.903038 35.537025,103.975433 35.344391,106.205811 
	C35.293983,106.895576 35.398968,107.427345 35.556847,108.407150 
	C35.867813,111.544754 36.125893,114.234322 36.266045,117.386444 
	C36.222469,126.924370 36.296818,135.999741 36.238976,145.479431 
	C35.798676,157.958893 35.395306,170.032761 35.236965,182.109863 
	C35.185326,186.048401 35.772465,189.995331 36.017220,194.398407 
	C36.044582,197.958603 36.122181,201.058823 36.160980,204.464539 
	C36.050812,205.174316 35.979446,205.578613 35.908081,205.982895 
z"/>
<path fill="#B7B7B7" opacity="1.000000" stroke="none" 
	d="
M307.430511,10.480970 
	C304.724976,10.013241 302.019745,9.140830 299.313812,9.138613 
	C260.039948,9.106433 220.765930,9.240222 181.491989,9.232077 
	C148.877838,9.225312 116.263702,9.084331 83.324600,8.745970 
	C84.497833,8.068651 85.995461,7.282508 87.494308,7.280159 
	C160.811584,7.165219 234.128967,7.114940 307.446350,7.080366 
	C309.096893,7.079587 310.747559,7.341991 312.923737,8.035586 
	C320.149078,11.649796 327.026001,14.389203 333.455170,17.939455 
	C335.794006,19.230988 337.065430,22.455513 338.522522,24.584560 
	C331.857544,19.302559 325.463837,14.288898 316.963989,12.678026 
	C316.793060,12.553391 316.381500,12.456275 316.191681,12.186190 
	C314.958923,11.725613 313.915985,11.535120 312.501984,11.193056 
	C310.564117,10.854646 308.997314,10.667808 307.430511,10.480970 
z"/>
<path fill="#464646" opacity="1.000000" stroke="none" 
	d="
M348.237671,145.016983 
	C348.174774,113.863708 348.105774,82.710434 348.077393,51.557125 
	C348.076508,50.596169 348.497101,49.634823 349.147644,48.512672 
	C350.300079,49.270832 351.026093,50.189980 351.752106,51.109123 
	C351.845032,67.264908 351.971191,83.420593 352.021088,99.576508 
	C352.066864,114.405106 352.030334,129.233963 351.740479,144.490692 
	C351.262482,144.935211 351.074066,144.951752 350.552399,144.978043 
	C349.558624,144.997528 348.898163,145.007263 348.237671,145.016983 
z"/>
<path fill="#848484" opacity="1.000000" stroke="none" 
	d="
M348.765259,626.559509 
	C349.473053,620.046753 350.180847,613.533997 351.290405,606.995605 
	C353.867798,627.405518 353.183105,646.930054 334.945251,661.076965 
	C325.961182,668.045715 315.867401,670.771912 304.315552,669.246338 
	C306.083008,668.337524 308.164032,667.692932 310.873474,666.992981 
	C311.501892,666.937683 311.987244,666.826172 312.360748,666.823059 
	C331.608093,661.809998 344.753265,650.808044 349.652039,631.310364 
	C350.035248,629.785095 352.316467,627.505798 348.765259,626.559509 
z"/>
<path fill="#494949" opacity="1.000000" stroke="none" 
	d="
M348.176147,145.480957 
	C348.898163,145.007263 349.558624,144.997528 350.660553,145.325226 
	C351.590637,146.110306 352.079315,146.557953 352.567963,147.005600 
	C352.693176,152.071609 352.818390,157.137619 352.470917,162.737000 
	C351.680573,166.473816 351.362915,169.677231 351.034180,173.354553 
	C351.016693,177.548065 350.863495,181.276291 351.080780,184.982803 
	C351.160645,186.344513 352.116821,187.654831 352.673279,188.988586 
	C352.781799,194.557831 352.890320,200.127090 352.683228,206.357697 
	C351.508362,208.821350 349.473602,210.778427 353.023376,212.000305 
	C352.959412,212.720276 352.895447,213.440247 352.365845,214.604324 
	C351.902893,215.882355 351.905640,216.716263 351.908386,217.550186 
	C351.903961,218.490051 351.899536,219.429901 351.316376,220.696350 
	C350.437378,221.028442 350.137146,221.033966 349.836914,221.039490 
	C346.128998,196.079849 349.091187,170.967224 348.176147,145.480957 
z"/>
<path fill="#A6A6A6" opacity="1.000000" stroke="none" 
	d="
M338.823853,24.798100 
	C337.065430,22.455513 335.794006,19.230988 333.455170,17.939455 
	C327.026001,14.389203 320.149078,11.649796 313.225677,8.319037 
	C327.578308,8.971536 338.400146,16.219805 346.229645,28.167179 
	C348.082214,30.994101 349.047638,34.402382 349.970032,37.918739 
	C348.783173,38.829689 348.047394,39.365128 347.311646,39.900562 
	C346.141144,37.689682 344.970642,35.478809 343.520630,32.697739 
	C342.422546,30.464632 341.603943,28.801718 341.065186,26.937422 
	C340.688049,26.190990 340.031036,25.645943 339.257019,25.110901 
	C339.139984,25.120907 338.823883,24.798092 338.823853,24.798100 
z"/>
<path fill="#464646" opacity="1.000000" stroke="none" 
	d="
M351.685059,500.559265 
	C347.063293,488.244873 347.943329,475.095459 348.559296,462.006897 
	C348.701691,458.980957 349.967438,456.007904 351.083801,452.947388 
	C351.644531,458.829681 351.963043,464.774231 352.002533,470.720612 
	C352.067719,480.527496 351.952545,490.335632 351.685059,500.559265 
z"/>
<path fill="#464646" opacity="1.000000" stroke="none" 
	d="
M351.679779,404.690765 
	C350.333160,402.487946 348.303680,399.871094 348.263428,397.223969 
	C348.128845,388.374207 348.677917,379.512390 349.072723,370.659973 
	C349.099304,370.064026 350.019257,369.507874 350.966431,368.961365 
	C351.575562,380.747253 351.741913,392.505066 351.679779,404.690765 
z"/>
<path fill="#848484" opacity="1.000000" stroke="none" 
	d="
M169.364502,669.778809 
	C172.606018,669.286926 176.114105,669.035889 179.626633,668.921326 
	C188.362274,668.636475 197.099167,668.263245 205.837067,668.217896 
	C211.932877,668.186279 218.031204,668.638184 224.462921,669.073242 
	C224.135345,669.647339 223.472397,670.350891 222.811234,670.349243 
	C205.085098,670.304321 187.359116,670.186890 169.364502,669.778809 
z"/>
<path fill="#464646" opacity="1.000000" stroke="none" 
	d="
M351.679596,594.697998 
	C350.606140,594.208313 349.038818,593.300171 349.025543,592.369751 
	C348.859253,580.723999 348.880554,569.074524 348.994110,557.427429 
	C349.002686,556.547668 350.078339,555.678223 351.054626,554.835571 
	C351.644440,563.556213 351.882782,572.244568 352.012085,580.934631 
	C352.078186,585.377991 351.948944,589.824280 351.679596,594.697998 
z"/>
<path fill="#252525" opacity="1.000000" stroke="none" 
	d="
M36.409145,88.063866 
	C36.257839,77.617615 36.106533,67.171364 35.699989,56.407387 
	C35.439392,54.685143 35.434036,53.280632 35.568054,51.478600 
	C36.560253,51.028996 37.413078,50.976910 38.621861,51.387810 
	C38.986839,62.489983 39.094162,73.131058 38.889523,83.766121 
	C38.861660,85.214073 37.274391,86.632027 36.409145,88.063866 
z"/>
<path fill="#7B7B7B" opacity="1.000000" stroke="none" 
	d="
M35.100067,507.392090 
	C35.542404,512.326172 35.905979,517.590515 35.943810,522.857117 
	C36.004669,531.329285 35.850414,539.802979 35.548576,548.604431 
	C35.091339,543.335083 34.728764,537.738403 34.687950,532.139404 
	C34.628628,524.001648 34.801342,515.862122 35.100067,507.392090 
z"/>
<path fill="#7B7B7B" opacity="1.000000" stroke="none" 
	d="
M35.100067,443.392090 
	C35.542408,448.325745 35.905697,453.589600 35.943871,458.855835 
	C36.005272,467.327484 35.851986,475.800690 35.552872,484.602875 
	C35.095493,478.667511 34.744919,472.403717 34.687355,466.137238 
	C34.618740,458.667175 34.801338,451.194763 35.100067,443.392090 
z"/>
<path fill="#464646" opacity="1.000000" stroke="none" 
	d="
M349.951538,280.920288 
	C349.689514,274.261078 349.403229,267.602478 349.230988,260.940918 
	C349.221527,260.574463 350.160706,260.183502 351.054779,259.835571 
	C351.575043,266.840302 351.698822,273.813324 351.210144,280.996155 
	C350.382324,281.110718 350.166931,281.015503 349.951538,280.920288 
z"/>
<path fill="#464646" opacity="1.000000" stroke="none" 
	d="
M351.679840,356.685303 
	C348.365692,353.223358 347.927368,344.144684 351.057617,340.834717 
	C351.603577,345.997955 351.755920,351.128662 351.679840,356.685303 
z"/>
<path fill="#B7B7B7" opacity="1.000000" stroke="none" 
	d="
M71.812088,8.904773 
	C65.923973,11.845447 59.835064,14.493716 53.380836,17.081884 
	C57.876858,11.261586 64.457977,9.304348 71.812088,8.904773 
z"/>
<path fill="#7B7B7B" opacity="1.000000" stroke="none" 
	d="
M43.431458,25.800949 
	C41.523659,30.750437 39.313835,35.849983 36.783348,41.045837 
	C38.684933,36.078430 40.907181,31.014721 43.431458,25.800949 
z"/>
<path fill="#494949" opacity="1.000000" stroke="none" 
	d="
M351.629395,530.392578 
	C350.547974,530.584900 348.914703,530.302246 348.926758,530.172363 
	C349.365784,525.443970 349.957825,520.729797 350.972107,516.100830 
	C351.558533,520.788208 351.701660,525.388550 351.629395,530.392578 
z"/>
<path fill="#464646" opacity="1.000000" stroke="none" 
	d="
M352.815857,188.541885 
	C352.116821,187.654831 351.160645,186.344513 351.080780,184.982803 
	C350.863495,181.276291 351.016693,177.548065 351.340515,173.424042 
	C352.075409,173.028778 352.492859,173.037933 352.910309,173.047104 
	C352.926361,178.063126 352.942383,183.079163 352.815857,188.541885 
z"/>
<path fill="#848484" opacity="1.000000" stroke="none" 
	d="
M347.202972,40.270447 
	C348.047394,39.365128 348.783173,38.829689 349.771973,38.147087 
	C350.696686,42.113949 351.368347,46.227974 351.896057,50.725563 
	C351.026093,50.189980 350.300079,49.270832 349.341858,48.134293 
	C348.437866,45.491375 347.766083,43.065849 347.202972,40.270447 
z"/>
<path fill="#7B7B7B" opacity="1.000000" stroke="none" 
	d="
M36.431786,636.234985 
	C38.628956,640.376709 40.790558,644.890076 42.920784,649.782410 
	C40.725014,645.643127 38.560616,641.124878 36.431786,636.234985 
z"/>
<path fill="#7B7B7B" opacity="1.000000" stroke="none" 
	d="
M44.211304,652.245239 
	C47.131458,654.635010 50.097485,657.357178 53.104874,660.411255 
	C50.183216,658.021301 47.220192,655.299500 44.211304,652.245239 
z"/>
<path fill="#464646" opacity="1.000000" stroke="none" 
	d="
M351.665161,307.679169 
	C346.554749,306.777313 349.834747,302.995087 349.653870,299.507690 
	C350.455139,298.092163 350.654053,297.654572 350.852966,297.216980 
	C351.209106,300.593597 351.565216,303.970215 351.665161,307.679169 
z"/>
<path fill="#464646" opacity="1.000000" stroke="none" 
	d="
M351.683044,245.587219 
	C349.700409,243.724503 344.630951,241.789642 351.097656,238.810379 
	C351.604401,240.973602 351.757599,243.081329 351.683044,245.587219 
z"/>
<path fill="#464646" opacity="1.000000" stroke="none" 
	d="
M349.310669,294.441193 
	C349.485504,290.579681 349.660339,286.718201 350.216400,282.323578 
	C350.813171,281.695374 351.028656,281.600281 351.244110,281.505188 
	C351.353729,286.275970 351.463348,291.046753 350.922791,295.659027 
	C349.951996,295.147400 349.631348,294.794281 349.310669,294.441193 
z"/>
<path fill="#848484" opacity="1.000000" stroke="none" 
	d="
M353.070312,172.627228 
	C352.492859,173.037933 352.075409,173.028778 351.351593,172.950134 
	C351.362915,169.677231 351.680573,166.473816 352.428772,163.167450 
	C352.982971,166.112137 353.106628,169.159744 353.070312,172.627228 
z"/>
<path fill="#848484" opacity="1.000000" stroke="none" 
	d="
M293.356171,669.620850 
	C295.585876,669.142456 297.983215,669.003235 300.789856,669.018555 
	C298.640717,669.435364 296.082275,669.697632 293.356171,669.620850 
z"/>
<path fill="#848484" opacity="1.000000" stroke="none" 
	d="
M353.295044,211.790863 
	C349.473602,210.778427 351.508362,208.821350 352.712524,206.749054 
	C353.227203,208.179840 353.396942,209.880630 353.295044,211.790863 
z"/>
<path fill="#848484" opacity="1.000000" stroke="none" 
	d="
M349.147461,294.707825 
	C349.631348,294.794281 349.951996,295.147400 350.551422,296.171326 
	C350.830231,296.842102 350.805847,297.217834 350.829407,297.217407 
	C350.654053,297.654572 350.455139,298.092163 349.763123,299.047363 
	C349.174744,298.034821 349.079468,296.504608 349.147461,294.707825 
z"/>
<path fill="#464646" opacity="1.000000" stroke="none" 
	d="
M349.823181,221.399139 
	C350.137146,221.033966 350.437378,221.028442 351.189636,221.028336 
	C351.725647,222.201797 351.809692,223.369858 351.672119,224.823776 
	C350.903442,223.992691 350.356445,222.875732 349.823181,221.399139 
z"/>
<path fill="#B7B7B7" opacity="1.000000" stroke="none" 
	d="
M52.083740,17.360699 
	C51.478462,18.318951 50.535824,19.160444 49.258308,19.938519 
	C49.864414,18.998047 50.805401,18.120993 52.083740,17.360699 
z"/>
<path fill="#848484" opacity="1.000000" stroke="none" 
	d="
M240.244278,669.567810 
	C241.015091,669.165588 241.848816,669.046753 242.975372,669.091431 
	C242.281189,669.453613 241.294189,669.652405 240.244278,669.567810 
z"/>
<path fill="#7B7B7B" opacity="1.000000" stroke="none" 
	d="
M36.025238,43.296379 
	C36.269405,43.997993 36.292969,44.954494 36.077187,46.044582 
	C35.826775,45.302532 35.815708,44.426903 36.025238,43.296379 
z"/>
<path fill="#848484" opacity="1.000000" stroke="none" 
	d="
M53.255074,661.175842 
	C54.161957,661.228760 55.121418,661.599670 56.119186,662.297668 
	C55.207550,662.247803 54.257599,661.870850 53.255074,661.175842 
z"/>
<path fill="#848484" opacity="1.000000" stroke="none" 
	d="
M352.142395,217.352448 
	C351.905640,216.716263 351.902893,215.882355 352.244537,214.945450 
	C352.518066,215.613220 352.447235,216.383972 352.142395,217.352448 
z"/>
<path fill="#848484" opacity="1.000000" stroke="none" 
	d="
M153.189636,669.735718 
	C153.612473,669.358093 154.148102,669.204773 154.797974,669.266724 
	C154.375626,669.641296 153.839035,669.800598 153.189636,669.735718 
z"/>
<path fill="#848484" opacity="1.000000" stroke="none" 
	d="
M57.773438,663.595215 
	C58.451378,663.513855 59.239620,663.732422 60.092674,664.283325 
	C59.399570,664.375427 58.641655,664.135254 57.773438,663.595215 
z"/>
<path fill="#7B7B7B" opacity="1.000000" stroke="none" 
	d="
M35.905815,632.184387 
	C36.258904,632.561096 36.467171,633.114624 36.461052,633.811401 
	C36.084778,633.423462 35.922886,632.892334 35.905815,632.184387 
z"/>
<path fill="#848484" opacity="1.000000" stroke="none" 
	d="
M352.731323,146.805527 
	C352.079315,146.557953 351.590637,146.110306 350.993835,145.315460 
	C351.074066,144.951752 351.262482,144.935211 351.731628,144.959259 
	C352.306488,145.535065 352.600586,146.070267 352.731323,146.805527 
z"/>
<path fill="#848484" opacity="1.000000" stroke="none" 
	d="
M227.780869,669.804199 
	C227.764221,669.638672 227.853897,669.721985 227.820801,669.716797 
	C227.787704,669.711670 228.120605,669.882080 228.120605,669.882080 
	C228.120605,669.882080 227.797516,669.969666 227.780869,669.804199 
z"/>
<path fill="#848484" opacity="1.000000" stroke="none" 
	d="
M351.204834,281.501709 
	C351.028656,281.600281 350.813171,281.695374 350.274689,281.935516 
	C349.959808,281.887482 349.967926,281.694427 349.963776,281.210815 
	C350.166931,281.015503 350.382324,281.110718 350.920929,281.348450 
	C351.244141,281.490997 351.165527,281.498230 351.204834,281.501709 
z"/>
<path fill="#848484" opacity="1.000000" stroke="none" 
	d="
M230.528046,669.920410 
	C230.565186,669.826233 230.534363,669.888123 230.525818,669.854980 
	C230.517288,669.821777 230.515701,670.116882 230.515701,670.116882 
	C230.515701,670.116882 230.490891,670.014648 230.528046,669.920410 
z"/>
<path fill="#848484" opacity="1.000000" stroke="none" 
	d="
M232.527893,669.922363 
	C232.562805,669.825684 232.533493,669.888184 232.525421,669.854980 
	C232.517334,669.821716 232.514557,670.122925 232.514557,670.122925 
	C232.514557,670.122925 232.492966,670.019104 232.527893,669.922363 
z"/>
<path fill="#848484" opacity="1.000000" stroke="none" 
	d="
M234.528046,669.920715 
	C234.565247,669.826416 234.534378,669.888428 234.526093,669.855103 
	C234.517792,669.821838 234.514465,670.117554 234.514465,670.117554 
	C234.514465,670.117554 234.490860,670.015015 234.528046,669.920715 
z"/>
<path fill="#FFFFFF" opacity="1.000000" stroke="none" 
	d="
M45.054836,37.012737 
	C51.412437,24.488377 61.824089,17.351080 75.842964,14.219658 
	C76.917343,13.992738 77.432442,13.810082 78.419052,13.639475 
	C155.603683,13.656310 232.316788,13.661097 309.349854,13.867823 
	C311.463257,14.316669 313.256714,14.563577 315.389526,14.935209 
	C326.201477,18.055172 334.119324,24.545620 340.487427,33.156357 
	C346.731079,44.596920 346.190979,57.040997 346.185883,69.510941 
	C346.112793,248.210739 346.134247,426.910583 346.131989,605.610413 
	C346.131927,612.771118 346.123016,619.931763 345.948792,627.871399 
	C343.307800,634.558105 341.487488,640.857361 338.222321,646.287903 
	C332.356262,656.044250 322.687622,660.819824 311.750244,663.695557 
	C311.340668,663.743408 311.186951,663.819702 311.033264,663.895935 
	C286.753845,663.886108 262.474426,663.868347 238.194992,663.868103 
	C186.750519,663.867737 135.306046,663.883728 83.861565,663.877869 
	C63.554356,663.875488 48.173893,652.283386 42.414886,632.126709 
	C42.005123,630.419250 41.732147,629.381348 41.459175,628.343384 
	C41.556213,628.037048 41.550331,627.732727 41.356842,626.779785 
	C41.276371,434.617249 41.280907,243.105255 41.277126,51.593239 
	C41.277103,50.432468 41.161049,49.271694 41.206203,47.787468 
	C42.560432,43.980251 43.807632,40.496494 45.054836,37.012737 
z"/>
<path fill="#131313" opacity="1.000000" stroke="none" 
	d="
M41.099174,48.110924 
	C41.161049,49.271694 41.277103,50.432468 41.277126,51.593239 
	C41.280907,243.105255 41.276371,434.617249 41.211922,626.599365 
	C40.390652,625.371521 38.976551,623.677490 38.966698,621.975281 
	C38.822010,596.977051 38.862103,571.977783 38.862667,546.978760 
	C38.864834,451.649200 38.868591,356.319672 38.871750,260.990112 
	C34.993595,242.993637 37.936859,224.696579 36.191490,206.288269 
	C35.979446,205.578613 36.050812,205.174316 36.537743,204.374603 
	C40.113209,200.751205 39.662415,195.641617 36.067455,193.938416 
	C35.772465,189.995331 35.185326,186.048401 35.236965,182.109863 
	C35.395306,170.032761 35.798676,157.958893 36.622654,145.435974 
	C37.746128,144.336166 38.871567,143.692612 38.882439,143.030777 
	C39.012917,135.086777 39.050163,127.138474 38.872974,119.196609 
	C38.855667,118.420914 37.251541,117.680626 36.383976,116.923897 
	C36.125893,114.234322 35.867813,111.544754 35.841995,108.301132 
	C35.882767,107.180664 35.691273,106.614243 35.499783,106.047821 
	C35.537025,103.975433 35.574265,101.903038 35.868919,99.255508 
	C35.922127,97.803879 35.717926,96.927391 35.513721,96.050911 
	C35.711880,93.672043 35.910038,91.293182 36.258671,88.489090 
	C37.274391,86.632027 38.861660,85.214073 38.889523,83.766121 
	C39.094162,73.131058 38.986839,62.489983 38.942684,51.371872 
	C39.285286,48.983959 39.663017,47.074974 40.396770,45.545383 
	C40.868256,46.653492 40.983719,47.382206 41.099174,48.110924 
z"/>
<path fill="#191919" opacity="1.000000" stroke="none" 
	d="
M185.337524,666.041626 
	C183.596634,666.039124 182.307114,666.039124 181.017593,666.039124 
	C181.017029,665.803040 181.016464,665.567017 181.015900,665.330933 
	C191.613495,665.330933 202.211075,665.330933 212.808670,665.330933 
	C212.814697,665.568665 212.820724,665.806335 212.826736,666.044067 
	C203.814133,666.044067 194.801514,666.044067 185.337524,666.041626 
z"/>
<path fill="#191919" opacity="1.000000" stroke="none" 
	d="
M150.976044,665.093384 
	C160.255920,665.063599 169.142914,665.063599 178.029922,665.063599 
	C178.030731,665.353638 178.031555,665.643677 178.032379,665.933716 
	C168.861099,665.933716 159.689819,665.934998 150.518555,665.921387 
	C150.386276,665.921204 150.254227,665.735413 150.122040,665.636292 
	C150.275742,665.465210 150.429459,665.294189 150.976044,665.093384 
z"/>
<path fill="#636363" opacity="1.000000" stroke="none" 
	d="
M41.334671,628.767212 
	C41.732147,629.381348 42.005123,630.419250 42.215191,631.778381 
	C41.949200,632.109741 41.750874,632.083679 41.323135,631.758301 
	C41.068832,631.311829 41.048698,631.128479 41.028564,630.945129 
	C41.089104,630.360413 41.149639,629.775696 41.334671,628.767212 
z"/>
<path fill="#464646" opacity="1.000000" stroke="none" 
	d="
M311.023193,664.277954 
	C311.186951,663.819702 311.340668,663.743408 311.748688,664.084839 
	C311.997742,665.277039 311.992493,666.051636 311.987244,666.826172 
	C311.987244,666.826172 311.501892,666.937683 311.252991,666.942139 
	C311.007111,666.184326 311.010101,665.422119 311.023193,664.277954 
z"/>
<path fill="#131313" opacity="1.000000" stroke="none" 
	d="
M40.806263,631.040405 
	C41.048698,631.128479 41.068832,631.311829 41.172607,631.759399 
	C41.032154,631.727722 40.808060,631.431763 40.806263,631.040405 
z"/>
<path fill="#494949" opacity="1.000000" stroke="none" 
	d="
M312.360748,666.823059 
	C311.992493,666.051636 311.997742,665.277039 312.004517,664.113281 
	C322.687622,660.819824 332.356262,656.044250 338.222321,646.287903 
	C341.487488,640.857361 343.307800,634.558105 345.986725,628.340454 
	C346.647186,628.430115 347.100250,628.829529 347.553284,629.229004 
	C347.819885,628.533569 348.086487,627.838135 348.559174,626.851074 
	C352.316467,627.505798 350.035248,629.785095 349.652039,631.310364 
	C344.753265,650.808044 331.608093,661.809998 312.360748,666.823059 
z"/>
<path fill="#3A3A3A" opacity="1.000000" stroke="none" 
	d="
M340.948669,33.089157 
	C334.119324,24.545620 326.201477,18.055172 315.357666,14.741785 
	C314.986389,14.423635 314.799683,14.078869 314.860626,14.053007 
	C314.921570,14.027144 315.047180,13.985309 315.367859,13.962725 
	C316.170654,13.560983 316.652771,13.181826 317.134888,12.802665 
	C325.463837,14.288898 331.857544,19.302559 338.522552,24.584555 
	C338.823883,24.798092 339.139984,25.120907 339.361603,25.412273 
	C339.983917,26.182035 340.384613,26.660427 340.785339,27.138813 
	C341.603943,28.801718 342.422546,30.464632 343.252930,32.481834 
	C342.646484,32.898067 342.028229,32.960011 340.948669,33.089157 
z"/>
<path fill="#191919" opacity="1.000000" stroke="none" 
	d="
M309.029907,13.665883 
	C232.316788,13.661097 155.603683,13.656310 78.258713,13.431153 
	C77.109177,13.193038 76.591476,13.175292 76.073784,13.157545 
	C77.490181,12.761985 78.906265,12.021817 80.323029,12.020488 
	C139.303665,11.965137 198.284378,11.980248 257.265076,11.975437 
	C271.593842,11.974269 285.922943,11.977770 300.251007,11.865817 
	C302.361877,11.849324 304.467773,11.202069 307.003235,10.663811 
	C308.997314,10.667808 310.564117,10.854646 312.561584,11.568451 
	C313.067139,12.596304 313.141968,13.097190 312.865082,13.444073 
	C311.352203,13.415339 310.191040,13.540610 309.029907,13.665883 
z"/>
<path fill="#636363" opacity="1.000000" stroke="none" 
	d="
M41.206207,47.787468 
	C40.983719,47.382206 40.868256,46.653492 40.769478,45.549706 
	C41.953346,42.485321 43.120525,39.796013 44.671272,37.059719 
	C43.807632,40.496494 42.560432,43.980251 41.206207,47.787468 
z"/>
<path fill="#636363" opacity="1.000000" stroke="none" 
	d="
M76.047997,13.366342 
	C76.591476,13.175292 77.109177,13.193038 77.787201,13.419106 
	C77.432442,13.810082 76.917343,13.992738 76.201439,14.085371 
	C76.000633,13.995348 76.022209,13.575137 76.047997,13.366342 
z"/>
<path fill="#252525" opacity="1.000000" stroke="none" 
	d="
M36.266045,117.386444 
	C37.251541,117.680626 38.855667,118.420914 38.872974,119.196609 
	C39.050163,127.138474 39.012917,135.086777 38.882439,143.030777 
	C38.871567,143.692612 37.746128,144.336166 36.754852,145.031662 
	C36.296818,135.999741 36.222469,126.924370 36.266045,117.386444 
z"/>
<path fill="#494949" opacity="1.000000" stroke="none" 
	d="
M36.017220,194.398407 
	C39.662415,195.641617 40.113209,200.751205 36.576546,204.069122 
	C36.122181,201.058823 36.044582,197.958603 36.017220,194.398407 
z"/>
<path fill="#494949" opacity="1.000000" stroke="none" 
	d="
M35.340260,96.253860 
	C35.717926,96.927391 35.922127,97.803879 35.811291,98.814438 
	C35.386433,98.117943 35.276615,97.287376 35.340260,96.253860 
z"/>
<path fill="#494949" opacity="1.000000" stroke="none" 
	d="
M35.344391,106.205811 
	C35.691273,106.614243 35.882767,107.180664 35.789108,107.853104 
	C35.398968,107.427345 35.293983,106.895576 35.344391,106.205811 
z"/>
<path fill="#494949" opacity="1.000000" stroke="none" 
	d="
M313.216827,13.598076 
	C313.141968,13.097190 313.067139,12.596304 312.932678,11.720022 
	C313.915985,11.535120 314.958923,11.725613 315.910400,12.397398 
	C315.561707,13.247567 315.304443,13.616443 315.047180,13.985313 
	C315.047180,13.985309 314.921570,14.027144 314.647339,14.030516 
	C313.987701,13.888617 313.602264,13.743346 313.216827,13.598076 
z"/>
<path fill="#191919" opacity="1.000000" stroke="none" 
	d="
M315.367859,13.962729 
	C315.304443,13.616443 315.561707,13.247567 316.100220,12.667482 
	C316.381500,12.456275 316.793060,12.553391 316.963989,12.678030 
	C316.652771,13.181826 316.170654,13.560983 315.367859,13.962729 
z"/>
<path fill="#B7B7B7" opacity="1.000000" stroke="none" 
	d="
M341.065186,26.937428 
	C340.384613,26.660427 339.983917,26.182035 339.478638,25.402267 
	C340.031036,25.645943 340.688049,26.190990 341.065186,26.937428 
z"/>
<path fill="#636363" opacity="1.000000" stroke="none" 
	d="
M312.865082,13.444073 
	C313.602264,13.743346 313.987701,13.888617 314.586426,14.056377 
	C314.799683,14.078869 314.986389,14.423635 315.018250,14.617060 
	C313.256714,14.563577 311.463257,14.316669 309.349854,13.867822 
	C310.191040,13.540610 311.352203,13.415339 312.865082,13.444073 
z"/>
</svg>